<?xml version="1.0" encoding="utf-8"?>
<!-- Generator: Adobe Illustrator 26.0.1, SVG Export Plug-In . SVG Version: 6.00 Build 0)  -->
<svg version="1.1" id="Layer_1" xmlns="http://www.w3.org/2000/svg" xmlns:xlink="http://www.w3.org/1999/xlink" x="0px" y="0px"
	 viewBox="0 0 33 33" style="enable-background:new 0 0 33 33;" xml:space="preserve">
<style type="text/css">
	.st0{fill:#484A4D;}
	.st1{fill:none;stroke:#484A4D;stroke-width:1.7;}
</style>
<g>
	<path class="st0" d="M8.1,29.9h20.4c1.1,0,1.1-1.6,0.1-1.7h-0.1C27,28.2,26,27,26,25.6c0-1.5,1-2.7,2.4-2.7c1.1,0,1.1-1.7,0-1.7
		H8.1c-2.4,0-4.4,1.9-4.4,4.4C3.7,28,5.7,29.9,8.1,29.9z M25.2,22.9L25.2,22.9c-0.6,0.8-0.9,1.7-0.9,2.7v0.2c0,0.8,0.3,1.6,0.7,2.2
		l0.2,0.2H8.1c-1.5,0-2.7-1.2-2.7-2.7l0,0v-0.2c0.1-1.4,1.2-2.5,2.6-2.5C8.1,22.9,25.2,22.9,25.2,22.9z"/>
	<path class="st1" d="M4.6,26.1v-20c0-1.7,1.3-3,3-3h17.9c1.7,0,3,1.3,3,3v16.4"/>
	<path class="st0" d="M19.4,7.1C22.5,9,23.5,13,21.6,16c-0.5,0.8-1.2,1.5-2,2c-0.4,0.2-0.9,0.1-1.1-0.3s-0.1-0.9,0.2-1.1l0,0
		c0.6-0.4,1.1-0.9,1.5-1.5c1.4-2.2,0.6-5.2-1.7-6.6c-0.4-0.2-0.5-0.8-0.3-1.1S19,6.9,19.4,7.1z M16.1,9c2.1,1.3,2.7,3.9,1.5,5.9
		c-0.3,0.5-0.8,1-1.4,1.3c-0.4,0.2-0.9,0.1-1.1-0.3c-0.2-0.3-0.2-0.8,0.2-1.1l0.1-0.1c0.3-0.2,0.6-0.5,0.8-0.8
		c0.8-1.2,0.4-2.9-0.9-3.7C14.9,10,14.8,9.4,15,9.1C15.2,8.9,15.7,8.8,16.1,9z M12.8,10.5c1.2,0.8,1.6,2.3,0.9,3.5
		c-0.2,0.3-0.5,0.6-0.8,0.8c-0.4,0.2-0.9,0.1-1.1-0.3c-0.2-0.3-0.2-0.8,0.2-1.1l0.1-0.1c0.1-0.1,0.2-0.2,0.3-0.3
		c0.2-0.4,0.1-0.9-0.2-1.2L12,11.9c-0.4-0.2-0.5-0.8-0.3-1.1S12.4,10.3,12.8,10.5z"/>
</g>
</svg>
