<?xml version="1.0" encoding="utf-8"?>
<!-- Generator: Adobe Illustrator 26.0.1, SVG Export Plug-In . SVG Version: 6.00 Build 0)  -->
<svg version="1.1" id="Layer_1" xmlns="http://www.w3.org/2000/svg" xmlns:xlink="http://www.w3.org/1999/xlink" x="0px" y="0px"
	 viewBox="0 0 33 33" style="enable-background:new 0 0 33 33;" xml:space="preserve">
<style type="text/css">
	.st0{fill:url(#SVGID_1_);}
</style>
<g>
	
		<linearGradient id="SVGID_1_" gradientUnits="userSpaceOnUse" x1="-538.7872" y1="27.8796" x2="-538.7872" y2="28.8789" gradientTransform="matrix(25.554 0 0 28.019 13784.668 -778.6577)">
		<stop  offset="0" style="stop-color:#31A9EB"/>
		<stop  offset="1" style="stop-color:#1671D2"/>
	</linearGradient>
	<path class="st0" d="M25.4,2.5c2,0,3.7,1.6,3.8,3.7v0.2v16.3c0,0.4-0.3,0.8-0.9,0.8c-1.5,0-2.4,1.2-2.4,2.7c0,1.4,0.9,2.6,2.3,2.6
		h0.2h0.1c1,0.1,1,1.6,0,1.7h-0.1H8.1c-2.2,0-4.1-1.7-4.3-3.9l0,0V6.3c0-2,1.6-3.7,3.7-3.8h0.2C7.6,2.5,25.4,2.5,25.4,2.5z
		 M25.2,23.5H8.1c-1.3,0-2.5,1-2.6,2.3V26v0.2c0,1.4,1.1,2.6,2.5,2.6h0.2h17.1L25,28.6c-0.4-0.6-0.6-1.2-0.7-1.9v-0.3v-0.2
		c0-0.9,0.3-1.7,0.8-2.4L25.2,23.5L25.2,23.5z M19.5,7.6c-0.4-0.2-0.9-0.1-1.1,0.2s-0.1,0.9,0.3,1.1c2.3,1.4,3,4.4,1.7,6.6
		c-0.4,0.6-0.9,1.1-1.5,1.5c-0.4,0.2-0.5,0.7-0.3,1.1l0,0c0.2,0.4,0.8,0.5,1.1,0.3c0.8-0.5,1.5-1.2,2-2C23.6,13.5,22.6,9.5,19.5,7.6
		z M16.3,9.4c-0.4-0.2-0.9-0.1-1.1,0.2c-0.2,0.4-0.1,0.9,0.3,1.1c1.3,0.8,1.7,2.4,0.9,3.7c-0.2,0.3-0.5,0.6-0.8,0.8l-0.1,0.1
		c-0.3,0.3-0.4,0.7-0.2,1.1c0.2,0.4,0.8,0.5,1.1,0.3c0.6-0.3,1-0.8,1.4-1.3C19,13.4,18.3,10.7,16.3,9.4L16.3,9.4z M13,10.9
		c-0.4-0.2-0.9-0.1-1.1,0.2c-0.2,0.4-0.1,0.9,0.3,1.1l0.1,0.1c0.4,0.3,0.5,0.8,0.2,1.2c-0.1,0.1-0.2,0.2-0.3,0.3l-0.1,0.1
		c-0.3,0.3-0.4,0.7-0.2,1.1c0.2,0.4,0.8,0.5,1.1,0.3c0.3-0.2,0.6-0.5,0.8-0.8C14.6,13.3,14.2,11.7,13,10.9z"/>
</g>
</svg>
