<?xml version="1.0" encoding="UTF-8"?>
<svg width="32px" height="32px" viewBox="0 0 32 32" version="1.1" xmlns="http://www.w3.org/2000/svg" xmlns:xlink="http://www.w3.org/1999/xlink">
    <title>C20EFD03-E471-4DFB-9BFF-3A08EFD3ABDA</title>
    <g id="Symbols" stroke="none" stroke-width="1" fill="none" fill-rule="evenodd">
        <g id="Icon-HumanCoach-Deactive" fill="#484A4D">
            <path d="M11,19.1111111 C14.8659932,19.1111111 18,21.6652804 18,24.8160079 L17.996,24.9991111 L15.9885096,24.9999028 C15.9964417,24.9417738 16,24.8805232 16,24.8160079 C16,22.8704192 13.8413008,21.1111111 11,21.1111111 C8.15869924,21.1111111 6,22.8704192 6,24.8160079 C6,24.8803235 6.00353632,24.9413945 6.01141536,24.9993628 L4.00367899,24.9998051 C4.00123257,24.9397494 4,24.8784917 4,24.8160079 C4,21.6652804 7.13400675,19.1111111 11,19.1111111 Z M26.9769464,7 C28.0313082,7 28.8951115,7.81587779 28.9714606,8.85073766 L28.9769464,9 L28.9769464,15.0113716 C28.9757459,16.0657327 28.1588861,16.9286075 27.12394,17.0037795 L26.9746715,17.0090955 L20.4007365,17.0004807 L19.2007652,18.2346875 C18.8485532,18.5969482 18.3647806,18.8013305 17.8595221,18.8013305 L17.9558406,18.796 L17.9558406,16.62 L18.9667746,15.6062952 C19.2600827,15.3046189 19.6387115,15.105365 20.0470397,15.0319948 L20.2236937,15.008326 L20.4030114,15.0004819 L26.9769464,15.0090968 L26.9769464,9 L17.9444905,9 L17.9438406,9 L15.9888406,9 C15.9888406,7.9456382 16.8047184,7.08183488 17.8395783,7.00548574 L17.9888406,7 L26.9769464,7 Z M11.037037,8 C13.6961858,8 15.8518519,10.155666 15.8518519,12.8148148 C15.8518519,15.4739636 13.6961858,17.6296296 11.037037,17.6296296 C8.37788824,17.6296296 6.22222222,15.4739636 6.22222222,12.8148148 C6.22222222,10.155666 8.37788824,8 11.037037,8 Z M11.037037,10 C9.48245774,10 8.22222222,11.2602355 8.22222222,12.8148148 C8.22222222,14.3693941 9.48245774,15.6296296 11.037037,15.6296296 C12.5916163,15.6296296 13.8518519,14.3693941 13.8518519,12.8148148 C13.8518519,11.2602355 12.5916163,10 11.037037,10 Z" id="Combined-Shape"></path>
        </g>
    </g>
</svg>