<svg width="897" height="735" viewBox="0 0 897 735" fill="none" xmlns="http://www.w3.org/2000/svg">
<path d="M6.23369 696.649L5.19085 696.147L4.84554 697.252L4.29551 699.012L3.74832 700.763C3.37652 701.879 3.04164 702.995 2.74376 704.112L2.58013 704.726L3.06597 705.135C3.88896 705.828 5.10137 706.453 6.62504 707.036C8.16374 707.625 10.0873 708.196 12.3848 708.752L12.3884 708.753C17.0502 709.863 21.0201 710.43 24.28 710.43C32.843 710.43 39.5892 708.57 44.3778 704.708L44.3792 704.707C49.2231 700.786 51.68 695.775 51.68 689.74C51.68 684.057 49.9466 679.252 46.4423 675.4C42.9558 671.567 37.7859 668.751 31.0363 666.886C24.5118 665.073 19.7263 662.735 16.5867 659.927C13.4779 657.146 11.97 653.899 11.97 650.14C11.97 646.886 13.3013 644.456 16.0156 642.734C18.8209 640.955 22.434 640.03 26.92 640.03C30.5222 640.03 33.4497 640.427 35.7337 641.189C38.1173 641.983 40.2357 642.846 42.0929 643.774L43.0342 644.245L43.4561 643.281C43.9664 642.115 44.4765 640.985 44.9862 639.893C45.5108 638.769 45.9975 637.608 46.4463 636.411L46.7625 635.568L45.9571 635.166C43.54 633.957 40.6187 632.873 37.2048 631.908C33.8078 630.928 30.1947 630.44 26.37 630.44C18.8012 630.44 12.7131 632.315 8.22703 636.183C3.76931 640.026 1.5 644.769 1.5 650.36C1.5 656.216 3.21756 661.146 6.70177 665.076C10.1709 668.988 15.3178 671.826 22.0374 673.655C28.5652 675.432 33.3528 677.717 36.4927 680.456C39.6008 683.167 41.1 686.322 41.1 689.96C41.1 693.21 39.7322 695.853 36.8924 697.951C34.0505 699.978 29.8544 701.06 24.17 701.06C20.6741 701.06 17.2896 700.561 14.0133 699.564C10.7387 698.545 8.15127 697.572 6.23369 696.649Z" fill="#031A70" stroke="white" stroke-width="2"/>
<path d="M98.2252 667.033L98.2252 667.033L98.2292 667.04C100.461 670.807 101.609 675.568 101.609 681.38C101.609 686.958 100.43 691.648 98.122 695.495C95.9241 699.158 92.2268 701.06 86.7695 701.06C84.8729 701.06 82.8031 700.62 80.5508 699.706C78.514 698.851 76.5567 697.618 74.6795 695.997V666.653C76.5583 665.03 78.5175 663.797 80.5561 662.942L80.5633 662.939L80.5704 662.936C82.8208 661.951 84.8836 661.48 86.7695 661.48C92.3863 661.48 96.1052 663.39 98.2252 667.033ZM63.9895 732.09V733.239L65.1274 733.08L73.8174 731.87L74.6795 731.75V730.88V706.077C76.4457 707.231 78.3436 708.185 80.3714 708.937L80.3832 708.942L80.3952 708.946C83.0502 709.856 85.6167 710.32 88.0895 710.32C96.1116 710.32 102.238 707.579 106.277 701.989C110.317 696.5 112.299 689.569 112.299 681.27C112.299 673.043 110.353 666.118 106.393 660.56C102.355 654.89 96.1882 652.11 88.0895 652.11C85.3619 652.11 82.4801 652.772 79.4541 654.057C76.9456 655.087 74.6495 656.339 72.5692 657.817L71.0819 654.264L70.825 653.65H70.1595H64.9895H63.9895V654.65V732.09Z" fill="#031A70" stroke="white" stroke-width="2"/>
<path d="M170.013 683.7H171.013V682.7C171.013 674.56 169.22 667.481 165.591 661.507C161.923 655.268 155.68 652.22 147.133 652.22C138.967 652.22 132.537 654.956 127.989 660.506L127.989 660.506L127.984 660.513C123.564 666 121.348 672.903 121.273 681.151H121.273V681.16C121.273 689.639 123.603 696.668 128.335 702.163L128.34 702.168C133.127 707.651 140.148 710.32 149.223 710.32C151.517 710.32 154.521 709.939 158.21 709.202C161.963 708.526 165.073 707.387 167.494 705.748L168.179 705.284L167.851 704.524L165.101 698.144L164.694 697.2L163.762 697.633C161.741 698.571 159.61 699.438 157.368 700.234C155.311 700.918 152.536 701.28 149.003 701.28C143.199 701.28 139.144 699.522 136.602 696.179C134.13 692.859 132.697 688.717 132.348 683.7H170.013ZM146.803 661.59C151.188 661.59 154.303 663.003 156.345 665.703C158.311 668.304 159.637 671.641 160.284 675.76H132.647C133.245 671.66 134.638 668.338 136.788 665.744C139.131 663.002 142.424 661.59 146.803 661.59Z" fill="#031A70" stroke="white" stroke-width="2"/>
<path d="M183.457 657.123L182.791 657.574L183.09 658.321L183.75 659.971L184.41 661.621C184.842 662.703 185.239 663.785 185.599 664.866L185.948 665.911L186.954 665.464C188.904 664.597 191.04 663.765 193.363 662.966C195.57 662.207 198.42 661.81 201.948 661.81C206.756 661.81 209.448 663.281 210.607 665.842C211.823 668.531 212.497 671.791 212.595 675.65H199.858C193.975 675.65 189.086 677.085 185.276 680.039C181.464 682.978 179.608 687.296 179.608 692.82C179.608 697.818 181.193 702.033 184.394 705.39L184.394 705.39L184.402 705.399C187.666 708.742 192.556 710.32 198.868 710.32C201.965 710.32 205.045 709.583 208.097 708.133C210.571 706.958 212.689 705.669 214.436 704.258L216.209 708.394L216.469 709H217.128H222.408H223.408V708V671.26C223.408 665.634 221.351 661.024 217.233 657.524C213.202 653.962 207.964 652.22 201.618 652.22C199.304 652.22 196.247 652.68 192.479 653.567C188.678 654.461 185.65 655.634 183.457 657.123ZM191.741 698.701C190.318 696.8 189.638 694.846 189.638 692.82C189.638 690.276 190.466 688.094 192.133 686.227C193.803 684.364 196.251 683.37 199.638 683.37H212.718V694.204C211.008 696.128 208.972 697.801 206.604 699.222C204.197 700.666 201.552 701.39 198.648 701.39C195.326 701.39 193.104 700.43 191.741 698.701Z" fill="#031A70" stroke="white" stroke-width="2"/>
<path d="M255.119 682.193C257.827 686.396 260.535 690.63 263.244 694.896L263.248 694.902C266.181 699.449 269.114 703.995 272.048 708.542L272.343 709H272.888H283.118H284.966L283.955 707.453C280.358 701.948 276.688 696.443 272.945 690.938C269.363 685.67 265.848 680.402 262.401 675.135L278.103 659.54L278.793 658.854L278.126 658.145L272.846 652.535L272.137 651.781L271.408 652.516L248.918 675.21V630.34V629.191L247.78 629.35L239.09 630.56L238.228 630.68V631.55V708V709H239.228H247.918H248.918V708V688.394L255.119 682.193Z" fill="#031A70" stroke="white" stroke-width="2"/>
<path d="M339.656 708H296.566H295.566V707V634.2V633.2H296.566H336.486C336.631 634.294 336.777 635.388 336.924 636.482L336.926 636.5L339.656 708ZM339.656 708L339.676 708.144L340.666 708V707H340.521L339.676 701.18L339.656 708ZM294.566 708V709H295.566H340.666H341.822L341.656 707.856L340.666 701.036L340.541 700.18H339.676H305.256V674.13H326.806H328.026L327.787 672.934C327.571 671.854 327.39 670.776 327.247 669.698L327.247 669.698L327.246 669.687C327.099 668.59 326.953 667.494 326.807 666.398L326.692 665.53H325.816H305.256V640.8H337.476H338.696L338.457 639.604C338.241 638.524 338.06 637.446 337.917 636.368L337.917 636.368L337.916 636.358C337.769 635.261 337.623 634.165 337.477 633.068L337.362 632.2H336.486H295.566H294.566V633.2V708Z" fill="#031A70" stroke="white" stroke-width="2"/>
<path d="M397.325 708.89H398.325V707.89V671.81C398.325 666.266 396.803 661.592 393.696 657.863C390.518 653.972 385.679 652.11 379.395 652.11C376.048 652.11 372.522 653.083 368.828 654.966C365.708 656.495 363.05 658.331 360.87 660.481L358.667 654.314L358.43 653.65H357.725H352.445H351.445V654.65V708V709H352.445H361.135H362.135V708V669.547C364.339 667.071 366.933 665.122 369.922 663.694C373.153 662.187 375.783 661.482 377.845 661.48C381.284 661.551 383.667 662.672 385.195 664.71C386.798 666.848 387.635 669.594 387.635 673.02V707.89V708.89H388.635H397.325Z" fill="#031A70" stroke="white" stroke-width="2"/>
<path d="M441.54 662.936L441.54 662.936L441.55 662.941C443.735 663.868 445.768 665.14 447.651 666.763V695.777C445.768 697.4 443.735 698.672 441.55 699.599L441.55 699.599L441.54 699.604C439.289 700.589 437.226 701.06 435.341 701.06C429.719 701.06 426.001 699.183 423.885 695.616C421.722 691.848 420.611 687.084 420.611 681.27C420.611 675.688 421.755 670.994 423.994 667.145C426.196 663.411 429.893 661.48 435.341 661.48C437.226 661.48 439.289 661.951 441.54 662.936ZM450.154 656.781C449.973 657.179 449.791 657.568 449.61 657.948C447.513 656.396 445.196 655.1 442.661 654.059C439.705 652.771 436.858 652.11 434.131 652.11C426.1 652.11 419.909 654.893 415.727 660.545L415.727 660.545L415.722 660.552C411.685 666.112 409.701 673.078 409.701 681.38C409.701 689.677 411.645 696.607 415.61 702.096L415.615 702.102L415.62 702.108C419.733 707.619 425.891 710.32 433.911 710.32C436.392 710.32 439 709.816 441.726 708.832C443.873 708.078 445.848 707.121 447.651 705.959V712.18C447.651 716.136 446.413 718.924 444.077 720.741L444.065 720.75L444.053 720.76C441.716 722.697 438.483 723.72 434.241 723.72C430.795 723.72 428.077 723.288 426.038 722.474C423.918 721.597 421.762 720.683 419.568 719.732L418.641 719.331L418.249 720.262L415.609 726.532L415.298 727.271L415.952 727.736C418.367 729.449 421.509 730.7 425.331 731.525C429.095 732.411 432.149 732.87 434.461 732.87C442.234 732.87 448.249 730.964 452.318 726.978C456.405 723.043 458.451 718.123 458.451 712.29V654.65V653.65H457.451H452.171H451.527L451.261 654.236C450.891 655.049 450.522 655.896 450.154 656.781Z" fill="#031A70" stroke="white" stroke-width="2"/>
<path d="M474.019 708V709H475.019H483.709H484.709V708V630.34V629.191L483.571 629.35L474.881 630.56L474.019 630.68V631.55V708Z" fill="#031A70" stroke="white" stroke-width="2"/>
<path d="M500.718 643.124L500.729 643.136L500.74 643.147C502.044 644.451 503.699 645.09 505.627 645.09C507.493 645.09 509.132 644.444 510.491 643.169L510.492 643.168C511.937 641.809 512.677 640.117 512.677 638.15C512.677 636.251 511.932 634.631 510.492 633.351C509.142 632.011 507.503 631.32 505.627 631.32C503.68 631.32 501.994 632.009 500.63 633.373C499.328 634.675 498.718 636.301 498.797 638.173C498.802 640.09 499.44 641.761 500.718 643.124ZM500.337 708V709H501.337H510.137H511.137V708V654.65V653.65H510.137H501.337H500.337V654.65V708Z" fill="#031A70" stroke="white" stroke-width="2"/>
<path d="M557.241 665.224L558.201 665.705L558.612 664.712L561.252 658.332L561.556 657.598L560.909 657.136C558.722 655.573 555.88 654.396 552.431 653.57C549.018 652.68 546.106 652.22 543.718 652.22C537.49 652.22 532.415 653.608 528.597 656.491C524.802 659.337 522.918 663.349 522.918 668.4C522.918 672.934 524.935 676.571 528.856 679.237L528.865 679.243L528.875 679.25C532.685 681.715 536.721 683.659 540.982 685.079L540.988 685.081C544.506 686.229 547.413 687.654 549.73 689.339L549.738 689.345L549.746 689.35C551.987 690.912 552.948 692.619 552.948 694.47C552.948 696.683 552.036 698.254 550.155 699.32C548.167 700.447 545.284 701.06 541.408 701.06C538.939 701.06 536.466 700.707 533.986 699.999C531.544 699.281 529.328 698.422 527.335 697.426L526.363 696.939L525.96 697.949L523.32 704.549L523.018 705.302L523.693 705.752C526.025 707.307 528.973 708.445 532.5 709.196C535.981 710.01 538.92 710.43 541.298 710.43C548.371 710.43 553.902 709.056 557.741 706.158L557.743 706.156C561.673 703.169 563.638 699.054 563.638 693.92C563.638 689.173 561.554 685.355 557.491 682.54C553.677 679.849 549.564 677.718 545.153 676.148L545.144 676.145L545.134 676.141C541.669 674.987 538.853 673.735 536.667 672.397C534.667 671.059 533.828 669.579 533.828 667.96C533.828 666.026 534.611 664.534 536.25 663.397C538.016 662.222 540.404 661.59 543.498 661.59C546.57 661.59 549.165 661.983 551.303 662.742C553.546 663.539 555.525 664.366 557.241 665.224Z" fill="#031A70" stroke="white" stroke-width="2"/>
<path d="M586.33 659.329V630.34V629.205L585.204 629.348L576.514 630.448L575.64 630.559V631.44V708V709H576.64H585.33H586.33V708V669.547C588.535 667.07 591.13 665.12 594.121 663.692L594.121 663.692C597.276 662.186 599.868 661.482 601.93 661.48C605.451 661.551 607.818 662.677 609.268 664.694L609.274 664.702L609.28 664.71C610.883 666.848 611.72 669.594 611.72 673.02V707.89V708.89H612.72H621.41H622.41V707.89V671.81C622.41 666.269 620.888 661.596 617.785 657.868C614.675 653.968 609.829 652.11 603.48 652.11C600.216 652.11 596.839 653.003 593.361 654.742C590.694 656.018 588.348 657.546 586.33 659.329Z" fill="#031A70" stroke="white" stroke-width="2"/>
<path d="M686.703 641.13H687.856L687.693 639.989L686.703 633.059L686.58 632.2H685.713H630.383H629.383V633.2V640.13V641.13H630.383H652.813V708V709H653.813H662.613H663.613V708V641.13H686.703Z" fill="#031A70" stroke="white" stroke-width="2"/>
<path d="M716.861 710.43V710.43H716.87C725.027 710.43 731.486 707.774 736.109 702.381L736.114 702.375C740.692 696.957 742.985 690.045 743.06 681.719H743.06V681.71C743.06 673.26 741.001 666.215 736.811 660.652C732.622 654.991 726.277 652.22 717.97 652.22V652.22L717.961 652.22C709.802 652.295 703.411 655.029 698.936 660.507C694.511 665.924 692.295 672.794 692.22 681.041H692.22V681.05C692.22 689.497 694.24 696.507 698.36 702C702.543 707.578 708.768 710.355 716.861 710.43ZM728.983 667.138L728.983 667.138L728.99 667.15C731.22 670.912 732.369 675.743 732.37 681.704C732.298 687.723 730.936 692.408 728.386 695.855L728.386 695.855L728.378 695.866C725.968 699.214 722.237 700.95 716.98 700.95C711.742 700.95 708.279 699.124 706.3 695.627C704.213 691.94 703.131 687.068 703.13 680.946C703.202 675.147 704.49 670.519 706.913 666.988C709.333 663.494 713.028 661.7 718.19 661.7C723.418 661.7 726.927 663.557 728.983 667.138Z" fill="#031A70" stroke="white" stroke-width="2"/>
<path d="M800.697 630.45V629.331L799.585 629.456L790.785 630.446L789.897 630.546V631.44V656.577C788.115 655.421 786.182 654.467 784.098 653.714C781.374 652.655 778.797 652.11 776.377 652.11C768.346 652.11 762.155 654.893 757.973 660.545L757.972 660.547C753.929 666.038 751.947 673.008 751.947 681.38C751.947 689.607 753.893 696.533 757.853 702.09L757.857 702.097L757.862 702.103C761.972 707.688 768.132 710.43 776.157 710.43C778.946 710.43 781.824 709.81 784.783 708.597C787.382 707.557 789.738 706.261 791.847 704.707L793.624 708.431L793.896 709H794.527H799.697H800.697V708V630.45ZM762.857 681.27C762.857 675.688 764.001 670.994 766.24 667.145C768.439 663.415 772.169 661.48 777.697 661.48C779.582 661.48 781.645 661.951 783.896 662.936C786.013 663.863 788.013 665.136 789.897 666.763V695.777C788.017 697.401 786.02 698.672 783.908 699.599C781.658 700.511 779.591 700.95 777.697 700.95C772.065 700.95 768.347 699.103 766.235 695.607C764.004 691.84 762.857 687.08 762.857 681.27Z" fill="#031A70" stroke="white" stroke-width="2"/>
<path d="M846.136 632.836L845.888 632.2H845.205H836.735H836.038L835.797 632.854L808.187 707.654L807.69 709H809.125H817.595H818.293L818.533 708.345L826.103 687.77H856.291L864.293 708.362L864.583 709.109L865.375 708.989L874.065 707.669L875.302 707.481L874.846 706.316L846.136 632.836ZM852.986 678.73H829.267L840.93 647.562L852.986 678.73Z" fill="#031A70" stroke="white" stroke-width="2"/>
<path d="M884.419 708V709H885.419H894.109H895.109V708V633.2V632.2H894.109H885.419H884.419V633.2V708Z" fill="#031A70" stroke="white" stroke-width="2"/>
<path d="M153 403C135.5 420.5 135.833 474.667 135.5 511L219 607.5H671L731.5 382L711 335L699.5 321L685 314L716.5 300.5L688 283.5L716.5 268L701 264.5L681.5 268L705.5 221.5L685 230.5C681.5 162.5 605 3.00005 577.5 3C550.533 2.99995 514.333 63 497 102C477.667 97.4999 437.5 91.1999 431.5 102C415.9 92.4001 378 98 361 102C349.167 65.5 303.5 2.99985 276.5 3C236.41 3.00022 205.167 154.5 194 225C190.167 216 174 221.5 174 221.5C174 221.5 180.167 248 187.5 262L157 247.5L174 290L157 281.5C154.667 286 156.5 299.3 182.5 316.5C154.9 324.5 134.667 392.833 128 426C134.167 415.167 147.8 395.4 153 403Z" fill="white" stroke="#031A70" stroke-width="5" stroke-linecap="round" stroke-linejoin="round"/>
<path d="M375 562C320.6 562 325 495.667 334 462.5L348 455L353 457C358.167 459.5 369.3 462.1 376.5 460.5C376.5 458.5 406.667 443.5 421 438V403C409.333 399.167 385.7 386.4 384.5 366C383.3 345.6 413.667 338.833 429 338C441.333 337.5 467.7 340.9 474.5 358.5C481.3 376.1 452 395.5 436.5 403V438C451.7 438.8 478.5 462.5 478.5 462.5C495.5 462.5 506.5 481 506.5 485.5C492.9 505.5 451 513.833 433 513.5C422 553 429.4 562 375 562Z" fill="#031A70" stroke="#031A70" stroke-width="5"/>
<path d="M349.598 539.556C342.098 529.056 338.264 487.39 347.098 467.556C355.931 468.223 373.598 476.056 373.598 476.056C373.598 476.056 366.431 508.556 365.598 524.056C366.598 526.39 370.698 529.656 379.098 524.056C381.097 505.556 388.931 481.89 396.097 465.056C405.431 455.556 431.097 444.056 440.098 453.556C441.5 455.037 428.5 495 418.597 524.056C416 532.5 412.597 548.056 388.597 552.056C358.597 557.056 349.598 539.556 349.598 539.556Z" fill="#F68C8E"/>
<path d="M347.098 467.556L347.286 465.063C346.233 464.984 345.243 465.575 344.814 466.539L347.098 467.556ZM349.598 539.556L351.821 538.413L351.738 538.251L351.632 538.103L349.598 539.556ZM418.597 524.056L416.231 523.25L416.219 523.285L416.208 523.321L418.597 524.056ZM396.097 465.056L394.314 463.304C394.095 463.527 393.92 463.79 393.797 464.077L396.097 465.056ZM379.098 524.056L380.484 526.136L381.457 525.488L381.583 524.325L379.098 524.056ZM365.598 524.056L363.101 523.922L363.07 524.505L363.3 525.041L365.598 524.056ZM373.598 476.056L376.039 476.595C376.295 475.434 375.698 474.253 374.611 473.771L373.598 476.056ZM344.814 466.539C340.152 477.007 338.928 492.867 339.726 507.195C340.129 514.413 341.05 521.364 342.361 527.213C343.652 532.973 345.384 537.958 347.563 541.009L351.632 538.103C350.062 535.905 348.501 531.744 347.24 526.119C345.999 520.582 345.108 513.908 344.719 506.917C343.934 492.829 345.21 477.939 349.381 468.573L344.814 466.539ZM349.598 539.556C347.374 540.7 347.375 540.701 347.376 540.703C347.376 540.704 347.377 540.706 347.378 540.707C347.379 540.71 347.381 540.713 347.383 540.716C347.386 540.722 347.39 540.73 347.394 540.738C347.403 540.755 347.415 540.777 347.429 540.802C347.456 540.852 347.493 540.919 347.541 541.001C347.635 541.164 347.769 541.388 347.947 541.661C348.302 542.207 348.831 542.954 349.558 543.821C351.014 545.553 353.269 547.768 356.523 549.801C363.08 553.9 373.456 557.115 389.008 554.522L388.186 549.59C373.739 551.998 364.615 548.963 359.173 545.561C356.426 543.845 354.556 541.997 353.387 540.605C352.802 539.908 352.393 539.327 352.139 538.936C352.012 538.741 351.924 538.593 351.871 538.502C351.845 538.457 351.828 538.426 351.82 538.411C351.816 538.403 351.814 538.4 351.814 538.4C351.814 538.4 351.815 538.401 351.816 538.403C351.816 538.404 351.817 538.406 351.818 538.407C351.818 538.408 351.819 538.41 351.819 538.41C351.82 538.411 351.821 538.413 349.598 539.556ZM389.008 554.522C401.569 552.429 409.008 547.241 413.607 541.244C418.115 535.366 419.733 528.867 420.987 524.791L416.208 523.321C414.864 527.69 413.482 533.19 409.64 538.201C405.888 543.093 399.626 547.684 388.186 549.59L389.008 554.522ZM420.964 524.863C425.919 510.324 431.652 493.047 435.973 479.211C438.132 472.297 439.948 466.215 441.138 461.755C441.731 459.533 442.182 457.663 442.44 456.277C442.567 455.594 442.663 454.95 442.692 454.408C442.707 454.143 442.711 453.811 442.665 453.471C442.634 453.244 442.524 452.483 441.912 451.837L438.283 455.276C437.99 454.967 437.857 454.658 437.799 454.497C437.738 454.325 437.717 454.195 437.71 454.142C437.696 454.041 437.706 454.022 437.7 454.138C437.688 454.358 437.638 454.753 437.525 455.361C437.302 456.557 436.89 458.279 436.307 460.466C435.144 464.823 433.354 470.825 431.201 477.72C426.897 491.499 421.179 508.732 416.231 523.25L420.964 524.863ZM441.912 451.837C439.046 448.812 435.011 447.631 430.81 447.511C426.604 447.39 421.957 448.316 417.439 449.807C408.441 452.778 399.318 458.211 394.314 463.304L397.881 466.809C402.21 462.402 410.588 457.335 419.006 454.555C423.196 453.172 427.237 452.41 430.667 452.509C434.101 452.607 436.649 453.551 438.283 455.276L441.912 451.837ZM393.797 464.077C386.589 481.009 378.65 504.935 376.612 523.788L381.583 524.325C383.545 506.178 391.273 482.771 398.398 466.036L393.797 464.077ZM377.711 521.976C373.818 524.571 371.357 524.82 370.029 524.573C368.723 524.331 368.097 523.541 367.895 523.072L363.3 525.041C364.098 526.905 366.022 528.915 369.116 529.489C372.188 530.06 375.977 529.141 380.484 526.136L377.711 521.976ZM368.094 524.191C368.501 516.628 370.469 504.781 372.367 494.707C373.311 489.695 374.23 485.164 374.912 481.886C375.253 480.248 375.536 478.923 375.732 478.009C375.83 477.552 375.907 477.197 375.96 476.957C375.986 476.838 376.006 476.746 376.019 476.685C376.026 476.655 376.031 476.632 376.034 476.617C376.036 476.609 376.037 476.604 376.038 476.6C376.038 476.598 376.038 476.597 376.039 476.596C376.039 476.595 376.039 476.595 376.039 476.595C376.039 476.595 376.039 476.595 373.598 476.056C371.156 475.518 371.156 475.518 371.156 475.519C371.156 475.52 371.155 475.523 371.155 475.525C371.154 475.529 371.152 475.535 371.151 475.543C371.147 475.559 371.142 475.583 371.135 475.615C371.121 475.678 371.101 475.771 371.074 475.893C371.021 476.137 370.943 476.496 370.844 476.958C370.645 477.881 370.361 479.217 370.017 480.867C369.33 484.167 368.405 488.73 367.453 493.781C365.56 503.832 363.528 515.985 363.101 523.922L368.094 524.191ZM373.598 476.056C374.611 473.771 374.611 473.771 374.61 473.771C374.61 473.771 374.61 473.77 374.609 473.77C374.609 473.77 374.608 473.77 374.606 473.769C374.604 473.768 374.6 473.766 374.595 473.764C374.586 473.76 374.572 473.754 374.554 473.746C374.519 473.73 374.467 473.707 374.399 473.678C374.263 473.618 374.065 473.532 373.81 473.422C373.301 473.203 372.566 472.89 371.658 472.513C369.842 471.759 367.326 470.747 364.527 469.712C359.034 467.68 352.099 465.427 347.286 465.063L346.909 470.049C350.929 470.353 357.245 472.349 362.793 474.401C365.515 475.408 367.968 476.395 369.741 477.131C370.627 477.499 371.341 477.803 371.832 478.015C372.078 478.12 372.268 478.203 372.395 478.259C372.459 478.287 372.507 478.308 372.539 478.322C372.555 478.329 372.567 478.334 372.574 478.337C372.578 478.339 372.581 478.34 372.582 478.341C372.583 478.341 372.584 478.342 372.584 478.342C372.584 478.342 372.584 478.342 373.598 476.056Z" fill="#F68C8E"/>
<path fill-rule="evenodd" clip-rule="evenodd" d="M528.146 351L532.146 354.1C534.346 355.8 538.446 359.5 541.146 362.4C543.946 365.3 546.946 368.8 547.946 370.3C548.946 371.8 550.746 375.2 552.046 378C553.446 380.7 555.046 385 555.746 387.5C556.346 389.9 556.946 395.1 556.946 399C556.946 402.8 556.146 408.9 555.246 412.5C554.346 416 552.346 421.9 550.746 425.5C549.246 429 546.446 434.2 544.546 437C542.546 439.7 540.146 443.5 539.246 445.5C537.646 448.6 505.999 491.6 504.999 490C504.299 489.1 494.9 475.1 494.5 475.5C494 475.9 479.5 461.5 478.5 460.5C477 461.25 477.5 461 478.5 460.5C481.053 460.5 493 463 510.999 453.5C511.307 453.337 525 443.5 525.5 443C526.5 442 530.846 437.7 533.046 435C535.346 432.2 539.146 426.6 541.446 422.5C543.846 418.3 546.646 412 547.746 408.5C548.946 404.5 549.746 399.2 549.646 395C549.646 391.1 548.946 385.5 548.146 382.5C547.346 379.4 545.046 374.1 543.146 370.7C541.246 367.3 540.298 365.152 540.146 365C539.994 364.848 539.646 364 539.146 363.5C538.646 363 535.746 359.5 533.046 356.5L528.146 351Z" fill="#031A70"/>
<path d="M478.5 460.5C479.5 461.5 494 475.9 494.5 475.5C494.9 475.1 504.299 489.1 504.999 490C505.999 491.6 537.646 448.6 539.246 445.5C540.146 443.5 542.546 439.7 544.546 437C546.446 434.2 549.246 429 550.746 425.5C552.346 421.9 554.346 416 555.246 412.5C556.146 408.9 556.946 402.8 556.946 399C556.946 395.1 556.346 389.9 555.746 387.5C555.046 385 553.446 380.7 552.046 378C550.746 375.2 548.946 371.8 547.946 370.3C546.946 368.8 543.946 365.3 541.146 362.4C538.446 359.5 534.346 355.8 532.146 354.1L528.146 351L533.046 356.5C535.746 359.5 538.646 363 539.146 363.5C539.646 364 539.994 364.848 540.146 365C540.298 365.152 541.246 367.3 543.146 370.7C545.046 374.1 547.346 379.4 548.146 382.5C548.946 385.5 549.646 391.1 549.646 395C549.746 399.2 548.946 404.5 547.746 408.5C546.646 412 543.846 418.3 541.446 422.5C539.146 426.6 535.346 432.2 533.046 435C530.846 437.7 526.5 442 525.5 443C525 443.5 511.307 453.337 510.999 453.5C493 463 481.053 460.5 478.5 460.5ZM478.5 460.5C477 461.25 477.5 461 478.5 460.5Z" stroke="#031A70"/>
<path fill-rule="evenodd" clip-rule="evenodd" d="M331.3 349.5L327.3 352.6C325.1 354.3 321 358 318.3 360.9C315.5 363.8 312.5 367.3 311.5 368.8C310.5 370.3 308.7 373.7 307.4 376.5C306 379.2 304.4 383.5 303.7 386C303.1 388.4 302.5 393.6 302.5 397.5C302.5 401.3 303.3 407.4 304.2 411C305.1 414.5 307.1 420.4 308.7 424C310.2 427.5 313 432.7 314.9 435.5C316.9 438.2 319.3 442 320.2 444C321.8 447.1 333 464.1 334 462.5C334 462.5 336.6 460.6 337 461C337 461 348 454 349 453C342.5 448.461 337 445.7 332.3 441C331.3 440 330.5 438.491 326.4 433.5C324.1 430.7 320.3 425.1 318 421C315.6 416.8 312.8 410.5 311.7 407C310.5 403 309.7 397.7 309.8 393.5C309.8 389.6 310.5 384 311.3 381C312.1 377.9 314.4 372.6 316.3 369.2C318.2 365.8 319.148 363.652 319.3 363.5C319.452 363.348 319.8 362.5 320.3 362C320.8 361.5 323.7 358 326.4 355L331.3 349.5Z" fill="#031A70"/>
<path d="M157 509.5C89 513.621 80.8333 572.833 79 608.5H118.827C123.898 612.473 131.464 615 143 615C163.939 615 162.083 583.333 164 572C167.333 587 153 611 175 617C184.652 619.632 193.246 615.335 199.556 608.5C199.704 612.333 203.5 618.5 214.5 618.5C225.5 618.5 232 620 243.5 608.5C255 597 268.5 502.742 157 509.5Z" fill="white"/>
<path d="M107.5 582C108.899 591.534 110.491 601.97 118.827 608.5M118.827 608.5C123.898 612.473 131.464 615 143 615C163.939 615 162.083 583.333 164 572C167.333 587 153 611 175 617C184.652 619.632 193.246 615.335 199.556 608.5M118.827 608.5H79C80.8333 572.833 89 513.621 157 509.5C268.5 502.742 255 597 243.5 608.5C232 620 225.5 618.5 214.5 618.5C203.5 618.5 199.704 612.333 199.556 608.5M210 579C211.964 586.858 207.628 599.756 199.556 608.5" stroke="#031A70" stroke-width="5" stroke-linecap="round" stroke-linejoin="round"/>
<path d="M656.486 443.516C652.669 462.904 674.454 562.926 656 607H825L808.974 480.927V438.391C808.974 430.601 792.948 403.029 783.236 403.029C774.656 396.367 772.552 389.192 763.81 385.604C758.626 383.477 749.727 379.967 744.385 387.654L731.759 378.429C726.74 376.038 712.43 376.277 705.049 382.017C697.667 387.757 696.793 389.875 695.336 392.779C686.955 392.657 669.598 399.442 665.411 419.429C668.626 431.728 658.197 434.823 656.486 443.516Z" fill="white" stroke="#031A70" stroke-width="5" stroke-linecap="round" stroke-linejoin="round"/>
<path d="M777.5 483.5C777.5 497.307 766 503.5 740.5 506.5C716.5 511.5 704.5 503.807 704.5 490C704.5 476.193 720.618 460.5 740.5 460.5C760.382 460.5 777.5 469.693 777.5 483.5Z" fill="#F68C8E"/>
<path d="M690.938 482.067C696.272 480.634 698.854 472.987 696.706 464.986C694.557 456.986 688.491 451.661 683.157 453.093C677.824 454.526 675.242 462.173 677.39 470.174C679.539 478.174 685.605 483.499 690.938 482.067Z" fill="#F68C8E"/>
<path d="M782.938 460.067C788.272 458.634 790.854 450.987 788.706 442.986C786.557 434.986 780.491 429.661 775.157 431.093C769.824 432.526 767.242 440.173 769.39 448.174C771.539 456.174 777.605 461.499 782.938 460.067Z" fill="#F68C8E"/>
<path d="M690.938 482.067C696.272 480.634 698.854 472.987 696.706 464.986C694.557 456.986 688.491 451.661 683.157 453.093C677.824 454.526 675.242 462.173 677.39 470.174C679.539 478.174 685.605 483.499 690.938 482.067Z" fill="#F68C8E"/>
<path d="M690.938 482.067C696.272 480.634 698.854 472.987 696.706 464.986C694.557 456.986 688.491 451.661 683.157 453.093C677.824 454.526 675.242 462.173 677.39 470.174C679.539 478.174 685.605 483.499 690.938 482.067Z" fill="#F68C8E"/>
<path d="M690.938 482.067C696.272 480.634 698.854 472.987 696.706 464.986C694.557 456.986 688.491 451.661 683.157 453.093C677.824 454.526 675.242 462.173 677.39 470.174C679.539 478.174 685.605 483.499 690.938 482.067Z" fill="#F68C8E"/>
<path d="M748.938 441.067C754.272 439.634 756.854 431.987 754.706 423.986C752.557 415.986 746.491 410.661 741.157 412.093C735.824 413.526 733.242 421.173 735.39 429.174C737.539 437.174 743.605 442.499 748.938 441.067Z" fill="#F68C8E"/>
<path d="M709.938 450.067C715.272 448.634 717.854 440.987 715.706 432.986C713.557 424.986 707.491 419.661 702.157 421.093C696.824 422.526 694.242 430.173 696.39 438.174C698.539 446.174 704.605 451.499 709.938 450.067Z" fill="#F68C8E"/>
<path d="M285.5 28.9999C255.5 27.7999 223.333 150.5 211 212L223 217.5C231.5 211.5 248.5 197.6 248.5 190C244.9 185.2 254.667 161.667 260 150.5C261.167 153.167 265.8 158.5 275 158.5C273 153.3 281.167 131.333 285.5 121C287.333 125.5 291.2 133.5 292 129.5C292.8 125.5 299.333 119.5 302.5 117L309 131.5L321 115C315.333 86.3333 300.3 28.9999 285.5 28.9999Z" fill="#F68C8E" stroke="#F68C8E" stroke-width="5" stroke-linejoin="round"/>
<path d="M574.5 24.0087C604.5 22.8087 636.667 145.509 649 207.009L637 212.509C628.5 206.509 611.5 192.609 611.5 185.009C615.1 180.209 605.333 156.675 600 145.509C598.833 148.175 594.2 153.509 585 153.509C587 148.309 578.833 126.342 574.5 116.009C572.667 120.509 568.8 128.509 568 124.509C567.2 120.509 560.667 114.509 557.5 112.009L551 126.509L539 110.009C544.667 81.3421 559.7 24.0087 574.5 24.0087Z" fill="#F68C8E" stroke="#F68C8E" stroke-width="5" stroke-linejoin="round"/>
<path d="M325.5 325C340.136 325 352 313.807 352 300C352 286.193 340.136 275 325.5 275C310.864 275 299 286.193 299 300C299 313.807 310.864 325 325.5 325Z" fill="#031A70"/>
<path d="M335.5 293C339.09 293 342 290.314 342 287C342 283.686 339.09 281 335.5 281C331.91 281 329 283.686 329 287C329 290.314 331.91 293 335.5 293Z" fill="#FBFFF1"/>
<path d="M533.5 325C548.136 325 560 313.807 560 300C560 286.193 548.136 275 533.5 275C518.864 275 507 286.193 507 300C507 313.807 518.864 325 533.5 325Z" fill="#031A70"/>
<path d="M543.5 293C547.09 293 550 290.314 550 287C550 283.686 547.09 281 543.5 281C539.91 281 537 283.686 537 287C537 290.314 539.91 293 543.5 293Z" fill="#FBFFF1"/>
</svg>
