<svg width="960" height="246" viewBox="0 0 960 246" fill="none" xmlns="http://www.w3.org/2000/svg">
<path d="M83.2552 100.917C78.8766 105.289 78.9599 118.819 78.8766 127.895L99.7688 152H212.862L228 95.6716L222.871 83.9314L219.993 80.4342L216.365 78.6857L224.247 75.3135L217.116 71.067L224.247 67.1952L220.369 66.3209L215.49 67.1952L221.495 55.5798L216.365 57.828C215.49 40.842 196.349 1.00001 189.468 1C182.721 0.999988 173.663 15.9876 169.326 25.7295C164.489 24.6054 154.439 23.0317 152.938 25.7295C149.035 23.3315 139.552 24.7304 135.298 25.7295C132.338 16.6121 120.911 0.999963 114.156 1C104.125 1.00005 96.3077 38.8437 93.5137 56.4541C92.5546 54.206 88.5095 55.5798 88.5095 55.5798C88.5095 55.5798 90.0526 62.1993 91.8873 65.6964L84.256 62.0744L88.5095 72.6907L84.256 70.5674C83.6723 71.6915 84.1309 75.0137 90.6363 79.3102C83.7306 81.3085 78.6681 98.3776 77 106.663C78.543 103.957 81.9541 99.0189 83.2552 100.917Z" fill="white" stroke="#031A70" stroke-width="2" stroke-linecap="round" stroke-linejoin="round"/>
<path d="M138.487 141C125.037 141 126.275 123.615 128.5 115.177L131 113.5L133.048 114.287C134.325 114.923 137.078 115.584 138.858 115.177C138.858 114.668 146.317 110.852 149.86 109.453V100.548C146.976 99.5733 141.133 96.3252 140.836 91.1352C140.539 85.9452 148.047 84.2235 151.838 84.0116C154.888 83.8844 161.407 84.7494 163.088 89.2271C164.769 93.7047 157.525 98.6403 153.693 100.548V109.453C157.451 109.656 164.077 115.686 164.077 115.686C165.5 116.5 171.5 119.855 171.5 121C168.137 126.088 157.278 128.746 152.827 128.661C150.108 138.71 151.937 141 138.487 141Z" fill="#031A70" stroke="#031A70" stroke-width="2"/>
<path d="M131.934 135.616C130.025 132.965 129.049 122.442 131.298 117.434C133.546 117.602 138.044 119.58 138.044 119.58C138.044 119.58 136.22 127.788 136.007 131.702C136.262 132.291 137.306 133.116 139.444 131.702C139.953 127.03 141.947 121.054 143.772 116.802C146.148 114.403 152.682 111.499 154.973 113.898C155.33 114.272 152.021 124.364 149.5 131.702C148.839 133.834 147.972 137.763 141.862 138.773C134.225 140.036 131.934 135.616 131.934 135.616Z" fill="#F68C8E"/>
<path d="M130.914 117.016L130.962 116.393C130.696 116.373 130.447 116.521 130.339 116.762L130.914 117.016ZM131.544 135.024L132.104 134.738L132.083 134.697L132.057 134.66L131.544 135.024ZM148.927 131.147L148.331 130.945L148.328 130.954L148.325 130.963L148.927 131.147ZM143.259 116.391L142.809 115.953C142.754 116.008 142.71 116.074 142.679 116.146L143.259 116.391ZM138.976 131.147L139.325 131.667L139.57 131.505L139.602 131.214L138.976 131.147ZM135.575 131.147L134.946 131.113L134.938 131.259L134.996 131.393L135.575 131.147ZM137.59 119.142L138.205 119.277C138.27 118.986 138.12 118.691 137.846 118.57L137.59 119.142ZM130.339 116.762C129.164 119.38 128.856 123.346 129.057 126.93C129.159 128.735 129.391 130.474 129.721 131.937C130.046 133.377 130.482 134.624 131.031 135.387L132.057 134.66C131.661 134.111 131.268 133.07 130.95 131.663C130.637 130.278 130.413 128.609 130.315 126.86C130.117 123.337 130.439 119.613 131.489 117.27L130.339 116.762ZM131.544 135.024C130.984 135.31 130.984 135.31 130.984 135.311C130.984 135.311 130.985 135.311 130.985 135.312C130.985 135.312 130.986 135.313 130.986 135.314C130.987 135.315 130.988 135.317 130.989 135.319C130.991 135.324 130.994 135.329 130.998 135.335C131.004 135.348 131.014 135.365 131.026 135.385C131.05 135.426 131.083 135.482 131.128 135.55C131.218 135.687 131.351 135.874 131.534 136.09C131.901 136.524 132.469 137.078 133.289 137.586C134.941 138.611 137.555 139.415 141.473 138.767L141.266 137.533C137.626 138.135 135.327 137.376 133.956 136.526C133.264 136.096 132.793 135.634 132.499 135.286C132.351 135.112 132.248 134.966 132.184 134.869C132.152 134.82 132.13 134.783 132.117 134.76C132.11 134.749 132.106 134.741 132.104 134.737C132.103 134.735 132.102 134.735 132.102 134.735C132.102 134.735 132.103 134.735 132.103 134.735C132.103 134.736 132.103 134.736 132.103 134.736C132.103 134.737 132.104 134.737 132.104 134.737C132.104 134.737 132.104 134.738 131.544 135.024ZM141.473 138.767C144.637 138.243 146.511 136.946 147.67 135.446C148.806 133.976 149.213 132.35 149.529 131.331L148.325 130.963C147.987 132.056 147.639 133.431 146.671 134.685C145.725 135.908 144.148 137.057 141.266 137.533L141.473 138.767ZM149.523 131.349C150.772 127.713 152.216 123.391 153.305 119.931C153.849 118.202 154.306 116.681 154.606 115.565C154.755 115.009 154.869 114.542 154.934 114.195C154.966 114.024 154.99 113.863 154.997 113.728C155.001 113.661 155.002 113.578 154.991 113.493C154.983 113.437 154.955 113.246 154.801 113.085L153.887 113.945C153.813 113.867 153.779 113.79 153.765 113.75C153.749 113.707 153.744 113.674 153.742 113.661C153.739 113.636 153.741 113.631 153.74 113.66C153.737 113.715 153.724 113.814 153.696 113.966C153.64 114.265 153.536 114.696 153.389 115.243C153.096 116.332 152.645 117.834 152.102 119.558C151.018 123.004 149.578 127.314 148.331 130.945L149.523 131.349ZM154.801 113.085C154.079 112.328 153.062 112.033 152.004 112.003C150.944 111.972 149.774 112.204 148.635 112.577C146.369 113.32 144.07 114.679 142.809 115.953L143.708 116.829C144.799 115.727 146.909 114.46 149.03 113.764C150.086 113.418 151.104 113.228 151.968 113.253C152.833 113.277 153.475 113.513 153.887 113.945L154.801 113.085ZM142.679 116.146C140.863 120.381 138.863 126.365 138.35 131.08L139.602 131.214C140.096 126.676 142.043 120.821 143.838 116.636L142.679 116.146ZM138.627 130.627C137.646 131.276 137.026 131.338 136.691 131.276C136.362 131.216 136.205 131.018 136.154 130.901L134.996 131.393C135.197 131.86 135.682 132.362 136.461 132.506C137.235 132.649 138.19 132.419 139.325 131.667L138.627 130.627ZM136.204 131.181C136.306 129.289 136.802 126.326 137.28 123.807C137.518 122.553 137.75 121.42 137.921 120.6C138.007 120.19 138.079 119.859 138.128 119.63C138.153 119.516 138.172 119.427 138.186 119.367C138.192 119.338 138.197 119.314 138.2 119.299C138.202 119.292 138.203 119.286 138.204 119.282C138.205 119.28 138.205 119.279 138.205 119.278C138.205 119.277 138.205 119.277 138.205 119.277C138.205 119.277 138.205 119.277 138.205 119.277C138.205 119.277 138.205 119.277 137.59 119.142C136.975 119.007 136.975 119.007 136.975 119.008C136.975 119.008 136.975 119.009 136.975 119.009C136.975 119.01 136.974 119.012 136.974 119.014C136.973 119.018 136.972 119.024 136.97 119.032C136.966 119.047 136.961 119.071 136.955 119.101C136.941 119.162 136.922 119.252 136.897 119.368C136.846 119.598 136.775 119.933 136.688 120.345C136.515 121.171 136.282 122.312 136.042 123.575C135.565 126.089 135.053 129.128 134.946 131.113L136.204 131.181ZM137.59 119.142C137.846 118.57 137.846 118.57 137.845 118.57C137.845 118.57 137.845 118.57 137.845 118.57C137.845 118.57 137.845 118.57 137.844 118.57C137.844 118.57 137.843 118.569 137.842 118.569C137.839 118.568 137.836 118.566 137.831 118.564C137.822 118.56 137.809 118.554 137.792 118.547C137.758 118.532 137.708 118.511 137.644 118.483C137.516 118.428 137.33 118.35 137.102 118.256C136.644 118.067 136.01 117.814 135.305 117.555C133.921 117.047 132.174 116.484 130.962 116.393L130.867 117.64C131.879 117.716 133.471 118.215 134.868 118.728C135.554 118.98 136.172 119.227 136.619 119.411C136.842 119.503 137.022 119.579 137.146 119.632C137.208 119.658 137.255 119.679 137.287 119.693C137.303 119.7 137.316 119.705 137.324 119.709C137.328 119.71 137.331 119.712 137.332 119.712C137.333 119.713 137.334 119.713 137.334 119.713C137.335 119.713 137.335 119.714 137.335 119.714C137.335 119.714 137.335 119.714 137.59 119.142Z" fill="#F68C8E"/>
<path fill-rule="evenodd" clip-rule="evenodd" d="M176.745 88L177.753 88.7803C178.307 89.2083 179.34 90.1396 180.02 90.8696C180.725 91.5996 181.481 92.4806 181.733 92.8582C181.985 93.2358 182.438 94.0916 182.766 94.7964C183.118 95.4761 183.521 96.5585 183.698 97.1878C183.849 97.7919 184 99.1008 184 100.083C184 101.039 183.798 102.575 183.572 103.481C183.345 104.362 182.841 105.847 182.438 106.753C182.06 107.634 181.355 108.943 180.876 109.648C180.372 110.328 179.768 111.284 179.541 111.788C179.138 112.568 171.166 123.392 170.914 122.989C170.738 122.762 168.37 119.238 168.269 119.339C168.143 119.44 164.49 115.815 164.238 115.563C163.861 115.752 163.987 115.689 164.238 115.563C164.882 115.563 167.891 116.193 172.425 113.801C172.503 113.76 175.952 111.284 176.078 111.158C176.33 110.906 177.425 109.824 177.979 109.144C178.559 108.44 179.516 107.03 180.095 105.998C180.7 104.941 181.405 103.355 181.682 102.474C181.985 101.467 182.186 100.133 182.161 99.0757C182.161 98.094 181.985 96.6843 181.783 95.9292C181.582 95.1488 181.002 93.8147 180.524 92.9589C180.045 92.103 179.806 91.5623 179.768 91.5241C179.73 91.4858 179.642 91.2724 179.516 91.1465C179.39 91.0206 178.659 90.1396 177.979 89.3845L176.745 88Z" fill="#031A70"/>
<path fill-rule="evenodd" clip-rule="evenodd" d="M128.432 88L127.4 88.7674C126.832 89.1883 125.774 90.1042 125.077 90.8221C124.355 91.54 123.581 92.4065 123.323 92.7778C123.065 93.1492 122.6 93.9908 122.265 94.684C121.903 95.3524 121.49 96.4169 121.31 97.0358C121.155 97.6299 121 98.9172 121 99.8827C121 100.823 121.206 102.333 121.439 103.225C121.671 104.091 122.187 105.552 122.6 106.443C122.987 107.309 123.71 108.597 124.2 109.29C124.716 109.958 125.335 110.899 125.568 111.394C125.981 112.161 128.871 116.37 129.129 115.974C129.129 115.974 129.8 115.503 129.903 115.602C129.903 115.602 132.742 113.87 133 113.622C131.323 112.498 129.903 111.815 128.69 110.651C128.432 110.404 128.226 110.03 127.168 108.795C126.574 108.102 125.594 106.715 125 105.7C124.381 104.66 123.658 103.101 123.374 102.234C123.065 101.244 122.858 99.9322 122.884 98.8924C122.884 97.927 123.065 96.5407 123.271 95.798C123.477 95.0306 124.071 93.7185 124.561 92.8768C125.052 92.0352 125.296 91.5034 125.335 91.4658C125.375 91.4281 125.465 91.2182 125.594 91.0944C125.723 90.9707 126.471 90.1042 127.168 89.3616L128.432 88Z" fill="#031A70"/>
<path d="M84.5007 127.089C67.5001 128.143 65.4583 143.297 65 152.424H74.9571C76.2249 153.441 78.1165 154.088 81.0006 154.088C86.2355 154.088 85.7715 145.984 86.2508 143.083C87.084 146.922 83.5007 153.064 89.0009 154.6C91.4139 155.273 93.5625 154.174 95.1401 152.424C95.1771 153.405 96.1261 154.984 98.8762 154.984C101.626 154.984 103.251 155.367 106.126 152.424C109.002 149.481 112.377 125.359 84.5007 127.089Z" fill="white"/>
<path d="M72.1253 145.643C72.475 148.083 72.873 150.753 74.9571 152.424M74.9571 152.424C76.2249 153.441 78.1165 154.088 81.0006 154.088C86.2355 154.088 85.7715 145.984 86.2508 143.083C87.084 146.922 83.5007 153.064 89.0009 154.6C91.4139 155.273 93.5625 154.174 95.1401 152.424M74.9571 152.424H65C65.4583 143.297 67.5001 128.143 84.5007 127.089C112.377 125.359 109.002 149.481 106.126 152.424C103.251 155.367 101.626 154.984 98.8762 154.984C96.1261 154.984 95.1771 153.405 95.1401 152.424M97.7512 144.875C98.2422 146.886 97.1581 150.187 95.1401 152.424" stroke="#031A70" stroke-width="2" stroke-linecap="round" stroke-linejoin="round"/>
<path d="M209.121 110.774C208.172 115.663 213.586 140.886 209 152H251L247.017 120.208V109.481C247.017 107.517 243.034 100.564 240.621 100.564C238.488 98.8838 237.966 97.0745 235.793 96.1697C234.505 95.6333 232.293 94.7482 230.966 96.6867L227.828 94.3604C226.58 93.7574 223.024 93.8177 221.19 95.2652C219.355 96.7126 219.138 97.2467 218.776 97.979C216.693 97.9483 212.379 99.6593 211.339 104.699C212.138 107.801 209.546 108.581 209.121 110.774Z" fill="white" stroke="#031A70" stroke-width="2" stroke-linecap="round" stroke-linejoin="round"/>
<path d="M239 121.323C239 124.518 236.164 125.951 229.877 126.646C223.959 127.803 221 126.022 221 122.827C221 119.632 224.974 116 229.877 116C234.779 116 239 118.127 239 121.323Z" fill="#F68C8E"/>
<path d="M217.854 120.712C219.19 120.353 219.836 118.437 219.298 116.433C218.76 114.429 217.241 113.095 215.904 113.454C214.568 113.813 213.921 115.728 214.46 117.732C214.998 119.737 216.517 121.07 217.854 120.712Z" fill="#F68C8E"/>
<path d="M240.899 115.201C242.235 114.842 242.882 112.926 242.344 110.922C241.806 108.918 240.286 107.584 238.95 107.943C237.614 108.302 236.967 110.217 237.506 112.221C238.044 114.226 239.563 115.559 240.899 115.201Z" fill="#F68C8E"/>
<path d="M217.854 120.712C219.19 120.353 219.836 118.437 219.298 116.433C218.76 114.429 217.241 113.095 215.904 113.454C214.568 113.813 213.921 115.728 214.46 117.732C214.998 119.737 216.517 121.07 217.854 120.712Z" fill="#F68C8E"/>
<path d="M217.854 120.712C219.19 120.353 219.836 118.437 219.298 116.433C218.76 114.429 217.241 113.095 215.904 113.454C214.568 113.813 213.921 115.728 214.46 117.732C214.998 119.737 216.517 121.07 217.854 120.712Z" fill="#F68C8E"/>
<path d="M217.854 120.712C219.19 120.353 219.836 118.437 219.298 116.433C218.76 114.429 217.241 113.095 215.904 113.454C214.568 113.813 213.921 115.728 214.46 117.732C214.998 119.737 216.517 121.07 217.854 120.712Z" fill="#F68C8E"/>
<path d="M232.382 110.441C233.718 110.082 234.365 108.167 233.827 106.163C233.289 104.158 231.769 102.825 230.433 103.183C229.097 103.542 228.45 105.458 228.989 107.462C229.527 109.466 231.046 110.8 232.382 110.441Z" fill="#F68C8E"/>
<path d="M222.613 112.696C223.949 112.337 224.596 110.421 224.058 108.417C223.519 106.413 222 105.079 220.664 105.438C219.328 105.797 218.681 107.712 219.219 109.716C219.757 111.721 221.277 113.054 222.613 112.696Z" fill="#F68C8E"/>
<path d="M115.964 7.00222C108.327 6.69667 100.139 37.9398 97 53.5995L100.055 55C102.218 53.4722 106.545 49.9329 106.545 47.9977C105.629 46.7755 108.115 40.7832 109.473 37.9398C109.77 38.6189 110.949 39.9768 113.291 39.9768C112.782 38.6528 114.861 33.0593 115.964 30.4282C116.43 31.574 117.415 33.6111 117.618 32.5926C117.822 31.574 119.485 30.0463 120.291 29.4097L121.945 33.1018L125 28.9004C123.557 21.601 119.731 7.00222 115.964 7.00222Z" fill="#F68C8E" stroke="#F68C8E" stroke-width="2" stroke-linejoin="round"/>
<path d="M188.036 6.00218C195.673 5.70299 203.861 36.2952 207 51.6287L203.945 53C201.782 51.5041 197.455 48.0384 197.455 46.1436C198.371 44.9468 195.885 39.0792 194.527 36.2952C194.23 36.9599 193.051 38.2898 190.709 38.2898C191.218 36.9933 189.139 31.5164 188.036 28.9401C187.57 30.0621 186.585 32.0567 186.382 31.0594C186.178 30.0621 184.515 28.5662 183.709 27.9428L182.055 31.5581L179 27.4442C180.443 20.2968 184.269 6.00218 188.036 6.00218Z" fill="#F68C8E" stroke="#F68C8E" stroke-width="2" stroke-linejoin="round"/>
<path d="M126.5 82C130.09 82 133 79.0899 133 75.5C133 71.9101 130.09 69 126.5 69C122.91 69 120 71.9101 120 75.5C120 79.0899 122.91 82 126.5 82Z" fill="#031A70"/>
<path d="M128.5 74C129.328 74 130 73.1046 130 72C130 70.8954 129.328 70 128.5 70C127.672 70 127 70.8954 127 72C127 73.1046 127.672 74 128.5 74Z" fill="#FBFFF1"/>
<path d="M178 82C181.866 82 185 79.0899 185 75.5C185 71.9101 181.866 69 178 69C174.134 69 171 71.9101 171 75.5C171 79.0899 174.134 82 178 82Z" fill="#031A70"/>
<path d="M180.5 74C181.328 74 182 73.1046 182 72C182 70.8954 181.328 70 180.5 70C179.672 70 179 70.8954 179 72C179 73.1046 179.672 74 180.5 74Z" fill="#FBFFF1"/>
<path d="M26.008 218.714C21.248 218.714 16.964 217.898 13.156 216.266C9.34802 214.566 6.35602 212.186 4.18002 209.126C2.00402 206.066 0.916016 202.496 0.916016 198.416H13.36C13.632 201.476 14.822 203.992 16.93 205.964C19.106 207.936 22.132 208.922 26.008 208.922C30.02 208.922 33.148 207.97 35.392 206.066C37.636 204.094 38.758 201.578 38.758 198.518C38.758 196.138 38.044 194.2 36.616 192.704C35.256 191.208 33.522 190.052 31.414 189.236C29.374 188.42 26.518 187.536 22.846 186.584C18.222 185.36 14.448 184.136 11.524 182.912C8.66802 181.62 6.22002 179.648 4.18002 176.996C2.14002 174.344 1.12002 170.808 1.12002 166.388C1.12002 162.308 2.14002 158.738 4.18002 155.678C6.22002 152.618 9.07602 150.272 12.748 148.64C16.42 147.008 20.67 146.192 25.498 146.192C32.366 146.192 37.976 147.926 42.328 151.394C46.748 154.794 49.196 159.486 49.672 165.47H36.82C36.616 162.886 35.392 160.676 33.148 158.84C30.904 157.004 27.946 156.086 24.274 156.086C20.942 156.086 18.222 156.936 16.114 158.636C14.006 160.336 12.952 162.784 12.952 165.98C12.952 168.156 13.598 169.958 14.89 171.386C16.25 172.746 17.95 173.834 19.99 174.65C22.03 175.466 24.818 176.35 28.354 177.302C33.046 178.594 36.854 179.886 39.778 181.178C42.77 182.47 45.286 184.476 47.326 187.196C49.434 189.848 50.488 193.418 50.488 197.906C50.488 201.51 49.502 204.91 47.53 208.106C45.626 211.302 42.804 213.886 39.064 215.858C35.392 217.762 31.04 218.714 26.008 218.714Z" fill="white"/>
<path d="M75.8366 170.06C77.8086 167.476 80.4946 165.3 83.8946 163.532C87.2946 161.764 91.1366 160.88 95.4206 160.88C100.317 160.88 104.771 162.104 108.783 164.552C112.863 166.932 116.059 170.298 118.371 174.65C120.683 179.002 121.839 184 121.839 189.644C121.839 195.288 120.683 200.354 118.371 204.842C116.059 209.262 112.863 212.73 108.783 215.246C104.771 217.694 100.317 218.918 95.4206 218.918C91.1366 218.918 87.3286 218.068 83.9966 216.368C80.6646 214.6 77.9446 212.424 75.8366 209.84V244.724H64.2086V161.798H75.8366V170.06ZM110.007 189.644C110.007 185.768 109.191 182.436 107.559 179.648C105.995 176.792 103.887 174.65 101.235 173.222C98.6506 171.726 95.8626 170.978 92.8706 170.978C89.9466 170.978 87.1586 171.726 84.5066 173.222C81.9226 174.718 79.8146 176.894 78.1826 179.75C76.6186 182.606 75.8366 185.972 75.8366 189.848C75.8366 193.724 76.6186 197.124 78.1826 200.048C79.8146 202.904 81.9226 205.08 84.5066 206.576C87.1586 208.072 89.9466 208.82 92.8706 208.82C95.8626 208.82 98.6506 208.072 101.235 206.576C103.887 205.012 105.995 202.768 107.559 199.844C109.191 196.92 110.007 193.52 110.007 189.644Z" fill="white"/>
<path d="M184.848 188.522C184.848 190.63 184.712 192.534 184.44 194.234H141.498C141.838 198.722 143.504 202.326 146.496 205.046C149.488 207.766 153.16 209.126 157.512 209.126C163.768 209.126 168.188 206.508 170.772 201.272H183.318C181.618 206.44 178.524 210.69 174.036 214.022C169.616 217.286 164.108 218.918 157.512 218.918C152.14 218.918 147.312 217.728 143.028 215.348C138.812 212.9 135.48 209.5 133.032 205.148C130.652 200.728 129.462 195.628 129.462 189.848C129.462 184.068 130.618 179.002 132.93 174.65C135.31 170.23 138.608 166.83 142.824 164.45C147.108 162.07 152.004 160.88 157.512 160.88C162.816 160.88 167.542 162.036 171.69 164.348C175.838 166.66 179.068 169.924 181.38 174.14C183.692 178.288 184.848 183.082 184.848 188.522ZM172.71 184.85C172.642 180.566 171.112 177.132 168.12 174.548C165.128 171.964 161.422 170.672 157.002 170.672C152.99 170.672 149.556 171.964 146.7 174.548C143.844 177.064 142.144 180.498 141.6 184.85H172.71Z" fill="white"/>
<path d="M192.415 189.644C192.415 184 193.571 179.002 195.883 174.65C198.263 170.298 201.459 166.932 205.471 164.552C209.551 162.104 214.039 160.88 218.935 160.88C223.355 160.88 227.197 161.764 230.461 163.532C233.793 165.232 236.445 167.374 238.417 169.958V161.798H250.147V218H238.417V209.636C236.445 212.288 233.759 214.498 230.359 216.266C226.959 218.034 223.083 218.918 218.731 218.918C213.903 218.918 209.483 217.694 205.471 215.246C201.459 212.73 198.263 209.262 195.883 204.842C193.571 200.354 192.415 195.288 192.415 189.644ZM238.417 189.848C238.417 185.972 237.601 182.606 235.969 179.75C234.405 176.894 232.331 174.718 229.747 173.222C227.163 171.726 224.375 170.978 221.383 170.978C218.391 170.978 215.603 171.726 213.019 173.222C210.435 174.65 208.327 176.792 206.695 179.648C205.131 182.436 204.349 185.768 204.349 189.644C204.349 193.52 205.131 196.92 206.695 199.844C208.327 202.768 210.435 205.012 213.019 206.576C215.671 208.072 218.459 208.82 221.383 208.82C224.375 208.82 227.163 208.072 229.747 206.576C232.331 205.08 234.405 202.904 235.969 200.048C237.601 197.124 238.417 193.724 238.417 189.848Z" fill="white"/>
<path d="M287.656 189.95L313.564 218H297.856L277.048 193.826V218H265.42V142.52H277.048V186.38L297.448 161.798H313.564L287.656 189.95Z" fill="white"/>
<path d="M333.526 156.494V177.302H358.006V186.788H333.526V208.514H361.066V218H321.898V147.008H361.066V156.494H333.526Z" fill="white"/>
<path d="M403.744 160.88C408.164 160.88 412.108 161.798 415.576 163.634C419.112 165.47 421.866 168.19 423.838 171.794C425.81 175.398 426.796 179.75 426.796 184.85V218H415.27V186.584C415.27 181.552 414.012 177.71 411.496 175.058C408.98 172.338 405.546 170.978 401.194 170.978C396.842 170.978 393.374 172.338 390.79 175.058C388.274 177.71 387.016 181.552 387.016 186.584V218H375.388V161.798H387.016V168.224C388.92 165.912 391.334 164.11 394.258 162.818C397.25 161.526 400.412 160.88 403.744 160.88Z" fill="white"/>
<path d="M464.273 160.88C468.625 160.88 472.467 161.764 475.799 163.532C479.199 165.232 481.851 167.374 483.755 169.958V161.798H495.485V218.918C495.485 224.086 494.397 228.676 492.221 232.688C490.045 236.768 486.883 239.964 482.735 242.276C478.655 244.588 473.759 245.744 468.047 245.744C460.431 245.744 454.107 243.942 449.075 240.338C444.043 236.802 441.187 231.974 440.507 225.854H452.033C452.917 228.778 454.787 231.124 457.643 232.892C460.567 234.728 464.035 235.646 468.047 235.646C472.739 235.646 476.513 234.218 479.369 231.362C482.293 228.506 483.755 224.358 483.755 218.918V209.534C481.783 212.186 479.097 214.43 475.697 216.266C472.365 218.034 468.557 218.918 464.273 218.918C459.377 218.918 454.889 217.694 450.809 215.246C446.797 212.73 443.601 209.262 441.221 204.842C438.909 200.354 437.753 195.288 437.753 189.644C437.753 184 438.909 179.002 441.221 174.65C443.601 170.298 446.797 166.932 450.809 164.552C454.889 162.104 459.377 160.88 464.273 160.88ZM483.755 189.848C483.755 185.972 482.939 182.606 481.307 179.75C479.743 176.894 477.669 174.718 475.085 173.222C472.501 171.726 469.713 170.978 466.721 170.978C463.729 170.978 460.941 171.726 458.357 173.222C455.773 174.65 453.665 176.792 452.033 179.648C450.469 182.436 449.687 185.768 449.687 189.644C449.687 193.52 450.469 196.92 452.033 199.844C453.665 202.768 455.773 205.012 458.357 206.576C461.009 208.072 463.797 208.82 466.721 208.82C469.713 208.82 472.501 208.072 475.085 206.576C477.669 205.08 479.743 202.904 481.307 200.048C482.939 197.124 483.755 193.724 483.755 189.848Z" fill="white"/>
<path d="M522.385 142.52V218H510.757V142.52H522.385Z" fill="white"/>
<path d="M543.568 154.352C541.46 154.352 539.692 153.638 538.264 152.21C536.836 150.782 536.122 149.014 536.122 146.906C536.122 144.798 536.836 143.03 538.264 141.602C539.692 140.174 541.46 139.46 543.568 139.46C545.608 139.46 547.342 140.174 548.77 141.602C550.198 143.03 550.912 144.798 550.912 146.906C550.912 149.014 550.198 150.782 548.77 152.21C547.342 153.638 545.608 154.352 543.568 154.352ZM549.28 161.798V218H537.652V161.798H549.28Z" fill="white"/>
<path d="M584.946 218.918C580.526 218.918 576.549 218.136 573.013 216.572C569.544 214.94 566.79 212.764 564.75 210.044C562.711 207.256 561.622 204.162 561.487 200.762H573.523C573.727 203.142 574.849 205.148 576.888 206.78C578.996 208.344 581.615 209.126 584.742 209.126C588.006 209.126 590.523 208.514 592.291 207.29C594.127 205.998 595.044 204.366 595.044 202.394C595.044 200.286 594.024 198.722 591.984 197.702C590.013 196.682 586.85 195.56 582.498 194.336C578.282 193.18 574.848 192.058 572.196 190.97C569.544 189.882 567.232 188.216 565.26 185.972C563.357 183.728 562.404 180.77 562.404 177.098C562.404 174.106 563.289 171.386 565.057 168.938C566.825 166.422 569.341 164.45 572.604 163.022C575.936 161.594 579.745 160.88 584.029 160.88C590.421 160.88 595.555 162.512 599.43 165.776C603.374 168.972 605.483 173.358 605.755 178.934H594.127C593.923 176.418 592.903 174.412 591.067 172.916C589.231 171.42 586.748 170.672 583.62 170.672C580.56 170.672 578.215 171.25 576.583 172.406C574.951 173.562 574.135 175.092 574.135 176.996C574.135 178.492 574.678 179.75 575.766 180.77C576.854 181.79 578.18 182.606 579.745 183.218C581.309 183.762 583.62 184.476 586.68 185.36C590.76 186.448 594.093 187.57 596.677 188.726C599.328 189.814 601.607 191.446 603.51 193.622C605.414 195.798 606.401 198.688 606.469 202.292C606.469 205.488 605.585 208.344 603.817 210.86C602.049 213.376 599.532 215.348 596.268 216.776C593.073 218.204 589.298 218.918 584.946 218.918Z" fill="white"/>
<path d="M648.103 160.88C652.387 160.88 656.195 161.798 659.527 163.634C662.927 165.47 665.579 168.19 667.483 171.794C669.455 175.398 670.441 179.75 670.441 184.85V218H658.915V186.584C658.915 181.552 657.657 177.71 655.141 175.058C652.625 172.338 649.191 170.978 644.839 170.978C640.487 170.978 637.019 172.338 634.435 175.058C631.919 177.71 630.661 181.552 630.661 186.584V218H619.033V142.52H630.661V168.326C632.633 165.946 635.115 164.11 638.107 162.818C641.167 161.526 644.499 160.88 648.103 160.88Z" fill="white"/>
<path d="M731.071 147.11V156.596H712.201V218H700.573V156.596H681.601V147.11H731.071Z" fill="white"/>
<path d="M767.225 218.918C761.921 218.918 757.127 217.728 752.843 215.348C748.559 212.9 745.193 209.5 742.745 205.148C740.297 200.728 739.073 195.628 739.073 189.848C739.073 184.136 740.331 179.07 742.847 174.65C745.363 170.23 748.797 166.83 753.149 164.45C757.501 162.07 762.363 160.88 767.735 160.88C773.107 160.88 777.969 162.07 782.321 164.45C786.673 166.83 790.107 170.23 792.623 174.65C795.139 179.07 796.397 184.136 796.397 189.848C796.397 195.56 795.105 200.626 792.521 205.046C789.937 209.466 786.401 212.9 781.913 215.348C777.493 217.728 772.597 218.918 767.225 218.918ZM767.225 208.82C770.217 208.82 773.005 208.106 775.589 206.678C778.241 205.25 780.383 203.108 782.015 200.252C783.647 197.396 784.463 193.928 784.463 189.848C784.463 185.768 783.681 182.334 782.117 179.546C780.553 176.69 778.479 174.548 775.895 173.12C773.311 171.692 770.523 170.978 767.531 170.978C764.539 170.978 761.751 171.692 759.167 173.12C756.651 174.548 754.645 176.69 753.149 179.546C751.653 182.334 750.905 185.768 750.905 189.848C750.905 195.9 752.435 200.592 755.495 203.924C758.623 207.188 762.533 208.82 767.225 208.82Z" fill="white"/>
<path d="M804.016 189.644C804.016 184 805.172 179.002 807.484 174.65C809.864 170.298 813.06 166.932 817.072 164.552C821.152 162.104 825.674 160.88 830.638 160.88C834.31 160.88 837.914 161.696 841.45 163.328C845.054 164.892 847.91 167 850.018 169.652V142.52H861.748V218H850.018V209.534C848.114 212.254 845.462 214.498 842.062 216.266C838.73 218.034 834.888 218.918 830.536 218.918C825.64 218.918 821.152 217.694 817.072 215.246C813.06 212.73 809.864 209.262 807.484 204.842C805.172 200.354 804.016 195.288 804.016 189.644ZM850.018 189.848C850.018 185.972 849.202 182.606 847.57 179.75C846.006 176.894 843.932 174.718 841.348 173.222C838.764 171.726 835.976 170.978 832.984 170.978C829.992 170.978 827.204 171.726 824.62 173.222C822.036 174.65 819.928 176.792 818.296 179.648C816.732 182.436 815.95 185.768 815.95 189.644C815.95 193.52 816.732 196.92 818.296 199.844C819.928 202.768 822.036 205.012 824.62 206.576C827.272 208.072 830.06 208.82 832.984 208.82C835.976 208.82 838.764 208.072 841.348 206.576C843.932 205.08 846.006 202.904 847.57 200.048C849.202 197.124 850.018 193.724 850.018 189.848Z" fill="white"/>
<path d="M919.759 203.516H890.077L884.977 218H872.839L898.237 147.008H911.701L937.099 218H924.859L919.759 203.516ZM916.495 194.03L904.969 161.084L893.341 194.03H916.495Z" fill="white"/>
<path d="M959.77 147.11V218H948.142V147.11H959.77Z" fill="white"/>
</svg>
