<svg width="893" height="733" viewBox="0 0 893 733" fill="none" xmlns="http://www.w3.org/2000/svg">
<path d="M3.8 697.55C5.78 698.503 8.42 699.493 11.72 700.52C15.0933 701.547 18.5767 702.06 22.17 702.06C27.9633 702.06 32.4 700.96 35.48 698.76C38.56 696.487 40.1 693.553 40.1 689.96C40.1 682.04 33.5 676.283 20.3 672.69C7.1 669.097 0.5 661.653 0.5 650.36C0.5 645.08 2.62667 640.607 6.88 636.94C11.1333 633.273 16.9633 631.44 24.37 631.44C28.11 631.44 31.63 631.917 34.93 632.87C38.3033 633.823 41.1633 634.887 43.51 636.06C43.07 637.233 42.5933 638.37 42.08 639.47C41.5667 640.57 41.0533 641.707 40.54 642.88C38.6333 641.927 36.47 641.047 34.05 640.24C31.63 639.433 28.5867 639.03 24.92 639.03C20.3 639.03 16.4867 639.983 13.48 641.89C10.4733 643.797 8.97 646.547 8.97 650.14C8.97 658.28 15.57 664.183 28.77 667.85C42.0433 671.517 48.68 678.813 48.68 689.74C48.68 695.46 46.37 700.19 41.75 703.93C37.2033 707.597 30.7133 709.43 22.28 709.43C19.1267 709.43 15.24 708.88 10.62 707.78C6.07333 706.68 3.10333 705.543 1.71 704.37C2.00333 703.27 2.33333 702.17 2.7 701.07C3.06667 699.897 3.43333 698.723 3.8 697.55Z" fill="#031A70"/>
<path d="M71.6795 696.45C73.7328 698.283 75.8961 699.677 78.1695 700.63C80.5161 701.583 82.7161 702.06 84.7695 702.06C90.4895 702.06 94.5595 700.043 96.9795 696.01C99.3995 691.977 100.609 687.1 100.609 681.38C100.609 675.44 99.4361 670.49 97.0895 666.53C94.7428 662.497 90.6361 660.48 84.7695 660.48C82.7161 660.48 80.5161 660.993 78.1695 662.02C75.8961 662.973 73.7328 664.367 71.6795 666.2V696.45ZM62.9895 732.09V654.65H68.1595L70.1395 659.38C72.4128 657.62 74.9795 656.153 77.8395 654.98C80.7728 653.733 83.5228 653.11 86.0895 653.11C93.9361 653.11 99.7661 655.787 103.579 661.14C107.393 666.493 109.299 673.203 109.299 681.27C109.299 689.41 107.356 696.12 103.469 701.4C99.6561 706.68 93.8628 709.32 86.0895 709.32C83.7428 709.32 81.2861 708.88 78.7195 708C76.1528 707.047 73.8061 705.763 71.6795 704.15V730.88L62.9895 732.09Z" fill="#031A70"/>
<path d="M168.013 682.7H129.293C129.513 688.347 131.016 693.04 133.803 696.78C136.589 700.447 140.989 702.28 147.003 702.28C150.596 702.28 153.493 701.913 155.693 701.18C157.966 700.373 160.129 699.493 162.183 698.54L164.933 704.92C162.659 706.46 159.689 707.56 156.023 708.22C152.356 708.953 149.423 709.32 147.223 709.32C138.349 709.32 131.639 706.717 127.093 701.51C122.546 696.23 120.273 689.447 120.273 681.16C120.346 673.093 122.509 666.42 126.763 661.14C131.089 655.86 137.213 653.22 145.133 653.22C153.419 653.22 159.286 656.153 162.733 662.02C166.253 667.813 168.013 674.707 168.013 682.7ZM159.433 676.76C158.846 671.993 157.416 668.107 155.143 665.1C152.869 662.093 149.423 660.59 144.803 660.59C140.183 660.59 136.589 662.093 134.023 665.1C131.529 668.107 130.026 671.993 129.513 676.76H159.433Z" fill="#031A70"/>
<path d="M186.638 692.82C186.638 695.093 187.408 697.257 188.948 699.31C190.561 701.363 193.128 702.39 196.648 702.39C199.728 702.39 202.551 701.62 205.118 700.08C207.685 698.54 209.885 696.707 211.718 694.58V682.37H197.638C194.045 682.37 191.295 683.433 189.388 685.56C187.555 687.613 186.638 690.033 186.638 692.82ZM182.018 657.95C184.071 656.557 186.968 655.42 190.708 654.54C194.448 653.66 197.418 653.22 199.618 653.22C205.778 653.22 210.765 654.907 214.578 658.28C218.465 661.58 220.408 665.907 220.408 671.26V708H215.128L212.818 702.61C210.985 704.297 208.601 705.837 205.668 707.23C202.735 708.623 199.801 709.32 196.868 709.32C190.708 709.32 186.125 707.78 183.118 704.7C180.111 701.547 178.608 697.587 178.608 692.82C178.608 687.54 180.368 683.543 183.888 680.83C187.481 678.043 192.138 676.65 197.858 676.65H211.608C211.608 672.25 210.911 668.51 209.518 665.43C208.125 662.35 204.935 660.81 199.948 660.81C196.355 660.81 193.385 661.213 191.038 662.02C188.691 662.827 186.528 663.67 184.548 664.55C184.181 663.45 183.778 662.35 183.338 661.25C182.898 660.15 182.458 659.05 182.018 657.95Z" fill="#031A70"/>
<path d="M245.918 687.98V708H237.228V631.55L245.918 630.34V677.64L270.118 653.22L275.398 658.83L259.118 675C262.711 680.5 266.378 686 270.118 691.5C273.858 697 277.524 702.5 281.118 708H270.888C267.954 703.453 265.021 698.907 262.088 694.36C259.154 689.74 256.221 685.157 253.288 680.61L245.918 687.98Z" fill="#031A70"/>
<path d="M293.566 708V633.2H334.486C334.632 634.3 334.779 635.4 334.926 636.5C335.072 637.6 335.256 638.7 335.476 639.8H302.256V666.53H323.816C323.962 667.63 324.109 668.73 324.256 669.83C324.402 670.93 324.586 672.03 324.806 673.13H302.256V701.18H337.676L338.666 708H293.566Z" fill="#031A70"/>
<path d="M358.475 662.35C360.749 659.783 363.682 657.62 367.275 655.86C370.869 654.027 374.242 653.11 377.395 653.11C383.482 653.11 387.992 654.907 390.925 658.5C393.859 662.02 395.325 666.457 395.325 671.81V707.89H386.635V673.02C386.635 669.427 385.755 666.457 383.995 664.11C382.235 661.763 379.522 660.553 375.855 660.48C373.582 660.48 370.795 661.25 367.495 662.79C364.269 664.33 361.482 666.457 359.135 669.17V708H350.445V654.65H355.725L358.475 662.35Z" fill="#031A70"/>
<path d="M446.651 666.31C444.597 664.477 442.361 663.047 439.941 662.02C437.594 660.993 435.394 660.48 433.341 660.48C427.621 660.48 423.551 662.533 421.131 666.64C418.784 670.673 417.611 675.55 417.611 681.27C417.611 687.21 418.747 692.16 421.021 696.12C423.367 700.08 427.474 702.06 433.341 702.06C435.394 702.06 437.594 701.547 439.941 700.52C442.361 699.493 444.597 698.063 446.651 696.23V666.31ZM455.451 712.29C455.451 717.863 453.507 722.52 449.621 726.26C445.807 730 440.087 731.87 432.461 731.87C430.261 731.87 427.291 731.43 423.551 730.55C419.811 729.743 416.804 728.533 414.531 726.92L417.171 720.65C419.371 721.603 421.534 722.52 423.661 723.4C425.861 724.28 428.721 724.72 432.241 724.72C436.641 724.72 440.124 723.657 442.691 721.53C445.331 719.477 446.651 716.36 446.651 712.18V704.04C444.524 705.653 442.104 706.937 439.391 707.89C436.751 708.843 434.257 709.32 431.911 709.32C424.137 709.32 418.307 706.717 414.421 701.51C410.607 696.23 408.701 689.52 408.701 681.38C408.701 673.24 410.644 666.493 414.531 661.14C418.491 655.787 424.357 653.11 432.131 653.11C434.697 653.11 437.411 653.733 440.271 654.98C443.131 656.153 445.697 657.657 447.971 659.49C448.337 658.757 448.704 657.987 449.071 657.18C449.437 656.3 449.804 655.457 450.171 654.65H455.451V712.29Z" fill="#031A70"/>
<path d="M473.019 708V631.55L481.709 630.34V708H473.019Z" fill="#031A70"/>
<path d="M503.627 644.09C501.94 644.09 500.547 643.54 499.447 642.44C498.347 641.267 497.797 639.837 497.797 638.15C497.724 636.537 498.237 635.18 499.337 634.08C500.51 632.907 501.94 632.32 503.627 632.32C505.24 632.32 506.634 632.907 507.807 634.08C509.054 635.18 509.677 636.537 509.677 638.15C509.677 639.837 509.054 641.267 507.807 642.44C506.634 643.54 505.24 644.09 503.627 644.09ZM499.337 708V654.65H508.137V708H499.337Z" fill="#031A70"/>
<path d="M555.688 664.33C553.928 663.45 551.911 662.607 549.638 661.8C547.365 660.993 544.651 660.59 541.498 660.59C538.271 660.59 535.668 661.25 533.688 662.57C531.781 663.89 530.828 665.687 530.828 667.96C530.828 670.013 531.928 671.773 534.128 673.24C536.401 674.633 539.298 675.917 542.818 677.09C547.145 678.63 551.178 680.72 554.918 683.36C558.731 686 560.638 689.52 560.638 693.92C560.638 698.76 558.805 702.573 555.138 705.36C551.545 708.073 546.265 709.43 539.298 709.43C537.025 709.43 534.165 709.027 530.718 708.22C527.271 707.487 524.448 706.387 522.248 704.92L524.888 698.32C526.941 699.347 529.215 700.227 531.708 700.96C534.275 701.693 536.841 702.06 539.408 702.06C543.368 702.06 546.448 701.437 548.648 700.19C550.848 698.943 551.948 697.037 551.948 694.47C551.948 692.197 550.738 690.217 548.318 688.53C545.898 686.77 542.891 685.303 539.298 684.13C535.118 682.737 531.158 680.83 527.418 678.41C523.751 675.917 521.918 672.58 521.918 668.4C521.918 663.633 523.678 659.93 527.198 657.29C530.791 654.577 535.631 653.22 541.718 653.22C543.991 653.22 546.815 653.66 550.188 654.54C553.561 655.347 556.275 656.483 558.328 657.95L555.688 664.33Z" fill="#031A70"/>
<path d="M583.33 661.69C585.603 659.27 588.427 657.253 591.8 655.64C595.173 653.953 598.4 653.11 601.48 653.11C607.64 653.11 612.15 654.907 615.01 658.5C617.943 662.02 619.41 666.457 619.41 671.81V707.89H610.72V673.02C610.72 669.427 609.84 666.457 608.08 664.11C606.393 661.763 603.68 660.553 599.94 660.48C597.666 660.48 594.916 661.25 591.69 662.79C588.463 664.33 585.677 666.457 583.33 669.17V708H574.64V631.44L583.33 630.34V661.69Z" fill="#031A70"/>
<path d="M684.703 640.13H660.613V708H651.813V640.13H628.383V633.2H683.713L684.703 640.13Z" fill="#031A70"/>
<path d="M714.87 709.43C707.023 709.357 701.12 706.68 697.16 701.4C693.2 696.12 691.22 689.337 691.22 681.05C691.293 672.983 693.457 666.347 697.71 661.14C701.963 655.933 708.05 653.293 715.97 653.22C724.037 653.22 730.05 655.897 734.01 661.25C738.043 666.603 740.06 673.423 740.06 681.71C739.987 689.85 737.75 696.523 733.35 701.73C728.95 706.863 722.79 709.43 714.87 709.43ZM731.37 681.71C731.37 675.623 730.197 670.6 727.85 666.64C725.577 662.68 721.69 660.7 716.19 660.7C710.763 660.7 706.73 662.607 704.09 666.42C701.523 670.16 700.203 675 700.13 680.94C700.13 687.173 701.23 692.233 703.43 696.12C705.63 700.007 709.48 701.95 714.98 701.95C720.48 701.95 724.55 700.117 727.19 696.45C729.903 692.783 731.297 687.87 731.37 681.71Z" fill="#031A70"/>
<path d="M775.697 660.48C769.903 660.48 765.797 662.533 763.377 666.64C761.03 670.673 759.857 675.55 759.857 681.27C759.857 687.21 761.03 692.16 763.377 696.12C765.723 700.007 769.83 701.95 775.697 701.95C777.75 701.95 779.95 701.473 782.297 700.52C784.643 699.493 786.843 698.063 788.897 696.23V666.31C786.843 664.477 784.643 663.047 782.297 662.02C779.95 660.993 777.75 660.48 775.697 660.48ZM797.697 630.45V708H792.527L790.217 703.16C787.943 704.993 785.34 706.497 782.407 707.67C779.547 708.843 776.797 709.43 774.157 709.43C766.383 709.43 760.553 706.79 756.667 701.51C752.853 696.157 750.947 689.447 750.947 681.38C750.947 673.167 752.89 666.42 756.777 661.14C760.737 655.787 766.603 653.11 774.377 653.11C776.65 653.11 779.107 653.623 781.747 654.65C784.387 655.603 786.77 656.887 788.897 658.5V631.44L797.697 630.45Z" fill="#031A70"/>
<path d="M838.915 644.75L825.825 679.73H852.445L838.915 644.75ZM843.205 633.2L871.915 706.68L863.225 708L854.975 686.77H823.405L815.595 708H807.125L834.735 633.2H843.205Z" fill="#031A70"/>
<path d="M883.419 708V633.2H892.109V708H883.419Z" fill="#031A70"/>
<path d="M151 403C133.5 420.5 133.833 474.667 133.5 511L217 607.5H669L729.5 382L709 335L697.5 321L683 314L714.5 300.5L686 283.5L714.5 268L699 264.5L679.5 268L703.5 221.5L683 230.5C679.5 162.5 603 3.00005 575.5 3C548.533 2.99995 512.333 63 495 102C475.667 97.4999 435.5 91.1999 429.5 102C413.9 92.4001 376 98 359 102C347.167 65.5 301.5 2.99985 274.5 3C234.41 3.00022 203.167 154.5 192 225C188.167 216 172 221.5 172 221.5C172 221.5 178.167 248 185.5 262L155 247.5L172 290L155 281.5C152.667 286 154.5 299.3 180.5 316.5C152.9 324.5 132.667 392.833 126 426C132.167 415.167 145.8 395.4 151 403Z" fill="white" stroke="#031A70" stroke-width="5" stroke-linecap="round" stroke-linejoin="round"/>
<path d="M373 562C318.6 562 323 495.667 332 462.5L346 455L351 457C356.167 459.5 367.3 462.1 374.5 460.5C374.5 458.5 404.667 443.5 419 438V403C407.333 399.167 383.7 386.4 382.5 366C381.3 345.6 411.667 338.833 427 338C439.333 337.5 465.7 340.9 472.5 358.5C479.3 376.1 450 395.5 434.5 403V438C449.7 438.8 476.5 462.5 476.5 462.5C493.5 462.5 504.5 481 504.5 485.5C490.9 505.5 449 513.833 431 513.5C420 553 427.4 562 373 562Z" fill="#031A70" stroke="#031A70" stroke-width="5"/>
<path d="M347.598 539.556C340.098 529.056 336.264 487.39 345.098 467.556C353.931 468.223 371.598 476.056 371.598 476.056C371.598 476.056 364.431 508.556 363.598 524.056C364.598 526.39 368.698 529.656 377.098 524.056C379.097 505.556 386.931 481.89 394.097 465.056C403.431 455.556 429.097 444.056 438.098 453.556C439.5 455.037 426.5 495 416.597 524.056C414 532.5 410.597 548.056 386.597 552.056C356.597 557.056 347.598 539.556 347.598 539.556Z" fill="#F68C8E"/>
<path d="M345.098 467.556L345.286 465.063C344.233 464.984 343.243 465.575 342.814 466.539L345.098 467.556ZM347.598 539.556L349.821 538.413L349.738 538.251L349.632 538.103L347.598 539.556ZM416.597 524.056L414.231 523.25L414.219 523.285L414.208 523.321L416.597 524.056ZM438.098 453.556L436.283 455.276V455.276L438.098 453.556ZM394.097 465.056L392.314 463.304C392.095 463.527 391.92 463.79 391.797 464.077L394.097 465.056ZM377.098 524.056L378.484 526.136L379.457 525.488L379.583 524.325L377.098 524.056ZM363.598 524.056L361.101 523.922L361.07 524.505L361.3 525.041L363.598 524.056ZM371.598 476.056L374.039 476.595C374.295 475.434 373.698 474.253 372.611 473.771L371.598 476.056ZM342.814 466.539C338.152 477.007 336.928 492.867 337.726 507.195C338.129 514.413 339.05 521.364 340.361 527.213C341.652 532.973 343.384 537.958 345.563 541.009L349.632 538.103C348.062 535.905 346.501 531.744 345.24 526.119C343.999 520.582 343.108 513.908 342.719 506.917C341.934 492.829 343.21 477.939 347.381 468.573L342.814 466.539ZM347.598 539.556C345.374 540.7 345.375 540.701 345.376 540.703C345.376 540.704 345.377 540.706 345.378 540.707C345.379 540.71 345.381 540.713 345.383 540.716C345.386 540.722 345.39 540.73 345.394 540.738C345.403 540.755 345.415 540.777 345.429 540.802C345.456 540.852 345.493 540.919 345.541 541.001C345.635 541.164 345.769 541.388 345.947 541.661C346.302 542.207 346.831 542.954 347.558 543.821C349.014 545.553 351.269 547.768 354.523 549.801C361.08 553.9 371.456 557.115 387.008 554.522L386.186 549.59C371.739 551.998 362.615 548.963 357.173 545.561C354.426 543.845 352.556 541.997 351.387 540.605C350.802 539.908 350.393 539.327 350.139 538.936C350.012 538.741 349.924 538.593 349.871 538.502C349.845 538.457 349.828 538.426 349.82 538.411C349.816 538.403 349.814 538.4 349.814 538.4C349.814 538.4 349.815 538.401 349.816 538.403C349.816 538.404 349.817 538.406 349.818 538.407C349.818 538.408 349.819 538.41 349.819 538.41C349.82 538.411 349.821 538.413 347.598 539.556ZM387.008 554.522C399.569 552.429 407.008 547.241 411.607 541.244C416.115 535.366 417.733 528.867 418.987 524.791L414.208 523.321C412.864 527.69 411.482 533.19 407.64 538.201C403.888 543.093 397.626 547.684 386.186 549.59L387.008 554.522ZM418.964 524.863C423.919 510.324 429.652 493.047 433.973 479.211C436.132 472.297 437.948 466.215 439.138 461.755C439.731 459.533 440.182 457.663 440.44 456.277C440.567 455.594 440.663 454.95 440.692 454.408C440.707 454.143 440.711 453.811 440.665 453.471C440.634 453.244 440.524 452.483 439.912 451.837L436.283 455.276C435.99 454.967 435.857 454.658 435.799 454.497C435.738 454.325 435.717 454.195 435.71 454.142C435.696 454.041 435.706 454.022 435.7 454.138C435.688 454.358 435.638 454.753 435.525 455.361C435.302 456.557 434.89 458.279 434.307 460.466C433.144 464.823 431.354 470.825 429.201 477.72C424.897 491.499 419.179 508.732 414.231 523.25L418.964 524.863ZM439.912 451.837C437.046 448.812 433.011 447.631 428.81 447.511C424.604 447.39 419.957 448.316 415.439 449.807C406.441 452.778 397.318 458.211 392.314 463.304L395.881 466.809C400.21 462.402 408.588 457.335 417.006 454.555C421.196 453.172 425.237 452.41 428.667 452.509C432.101 452.607 434.649 453.551 436.283 455.276L439.912 451.837ZM391.797 464.077C384.589 481.009 376.65 504.935 374.612 523.788L379.583 524.325C381.545 506.178 389.273 482.771 396.398 466.036L391.797 464.077ZM375.711 521.976C371.818 524.571 369.357 524.82 368.029 524.573C366.723 524.331 366.097 523.541 365.895 523.072L361.3 525.041C362.098 526.905 364.022 528.915 367.116 529.489C370.188 530.06 373.977 529.141 378.484 526.136L375.711 521.976ZM366.094 524.191C366.501 516.628 368.469 504.781 370.367 494.707C371.311 489.695 372.23 485.164 372.912 481.886C373.253 480.248 373.536 478.923 373.732 478.009C373.83 477.552 373.907 477.197 373.96 476.957C373.986 476.838 374.006 476.746 374.019 476.685C374.026 476.655 374.031 476.632 374.034 476.617C374.036 476.609 374.037 476.604 374.038 476.6C374.038 476.598 374.038 476.597 374.039 476.596C374.039 476.595 374.039 476.595 374.039 476.595C374.039 476.595 374.039 476.595 371.598 476.056C369.156 475.518 369.156 475.518 369.156 475.519C369.156 475.519 369.156 475.519 369.156 475.52C369.156 475.521 369.155 475.523 369.155 475.525C369.154 475.529 369.152 475.535 369.151 475.543C369.147 475.559 369.142 475.583 369.135 475.615C369.121 475.678 369.101 475.771 369.074 475.893C369.021 476.137 368.943 476.496 368.844 476.958C368.645 477.881 368.361 479.217 368.017 480.867C367.33 484.167 366.405 488.73 365.453 493.781C363.56 503.832 361.528 515.985 361.101 523.922L366.094 524.191ZM371.598 476.056C372.611 473.771 372.611 473.771 372.61 473.771C372.61 473.771 372.61 473.77 372.609 473.77C372.609 473.77 372.608 473.77 372.606 473.769C372.604 473.768 372.6 473.766 372.595 473.764C372.586 473.76 372.572 473.754 372.554 473.746C372.519 473.73 372.467 473.707 372.399 473.678C372.263 473.618 372.065 473.532 371.81 473.422C371.301 473.203 370.566 472.89 369.658 472.513C367.842 471.759 365.326 470.747 362.527 469.712C357.034 467.68 350.099 465.427 345.286 465.063L344.909 470.049C348.929 470.353 355.245 472.349 360.793 474.401C363.515 475.408 365.968 476.395 367.741 477.131C368.627 477.499 369.341 477.803 369.832 478.015C370.078 478.12 370.268 478.203 370.395 478.259C370.459 478.287 370.507 478.308 370.539 478.322C370.555 478.329 370.567 478.334 370.574 478.337C370.578 478.339 370.581 478.34 370.582 478.341C370.583 478.341 370.584 478.342 370.584 478.342C370.584 478.342 370.584 478.342 370.584 478.342C370.584 478.342 370.584 478.342 371.598 476.056Z" fill="#F68C8E"/>
<path fill-rule="evenodd" clip-rule="evenodd" d="M526.146 351L530.146 354.1C532.346 355.8 536.446 359.5 539.146 362.4C541.946 365.3 544.946 368.8 545.946 370.3C546.946 371.8 548.746 375.2 550.046 378C551.446 380.7 553.046 385 553.746 387.5C554.346 389.9 554.946 395.1 554.946 399C554.946 402.8 554.146 408.9 553.246 412.5C552.346 416 550.346 421.9 548.746 425.5C547.246 429 544.446 434.2 542.546 437C540.546 439.7 538.146 443.5 537.246 445.5C535.646 448.6 503.999 491.6 502.999 490C502.299 489.1 492.9 475.1 492.5 475.5C492 475.9 477.5 461.5 476.5 460.5C475 461.25 475.5 461 476.5 460.5C479.053 460.5 491 463 508.999 453.5C509.307 453.337 523 443.5 523.5 443C524.5 442 528.846 437.7 531.046 435C533.346 432.2 537.146 426.6 539.446 422.5C541.846 418.3 544.646 412 545.746 408.5C546.946 404.5 547.746 399.2 547.646 395C547.646 391.1 546.946 385.5 546.146 382.5C545.346 379.4 543.046 374.1 541.146 370.7C539.246 367.3 538.298 365.152 538.146 365C537.994 364.848 537.646 364 537.146 363.5C536.646 363 533.746 359.5 531.046 356.5L526.146 351Z" fill="#031A70"/>
<path d="M476.5 460.5C477.5 461.5 492 475.9 492.5 475.5C492.9 475.1 502.299 489.1 502.999 490C503.999 491.6 535.646 448.6 537.246 445.5C538.146 443.5 540.546 439.7 542.546 437C544.446 434.2 547.246 429 548.746 425.5C550.346 421.9 552.346 416 553.246 412.5C554.146 408.9 554.946 402.8 554.946 399C554.946 395.1 554.346 389.9 553.746 387.5C553.046 385 551.446 380.7 550.046 378C548.746 375.2 546.946 371.8 545.946 370.3C544.946 368.8 541.946 365.3 539.146 362.4C536.446 359.5 532.346 355.8 530.146 354.1L526.146 351L531.046 356.5C533.746 359.5 536.646 363 537.146 363.5C537.646 364 537.994 364.848 538.146 365C538.298 365.152 539.246 367.3 541.146 370.7C543.046 374.1 545.346 379.4 546.146 382.5C546.946 385.5 547.646 391.1 547.646 395C547.746 399.2 546.946 404.5 545.746 408.5C544.646 412 541.846 418.3 539.446 422.5C537.146 426.6 533.346 432.2 531.046 435C528.846 437.7 524.5 442 523.5 443C523 443.5 509.307 453.337 508.999 453.5C491 463 479.053 460.5 476.5 460.5ZM476.5 460.5C475 461.25 475.5 461 476.5 460.5Z" stroke="#031A70"/>
<path fill-rule="evenodd" clip-rule="evenodd" d="M329.3 349.5L325.3 352.6C323.1 354.3 319 358 316.3 360.9C313.5 363.8 310.5 367.3 309.5 368.8C308.5 370.3 306.7 373.7 305.4 376.5C304 379.2 302.4 383.5 301.7 386C301.1 388.4 300.5 393.6 300.5 397.5C300.5 401.3 301.3 407.4 302.2 411C303.1 414.5 305.1 420.4 306.7 424C308.2 427.5 311 432.7 312.9 435.5C314.9 438.2 317.3 442 318.2 444C319.8 447.1 331 464.1 332 462.5C332 462.5 334.6 460.6 335 461C335 461 346 454 347 453C340.5 448.461 335 445.7 330.3 441C329.3 440 328.5 438.491 324.4 433.5C322.1 430.7 318.3 425.1 316 421C313.6 416.8 310.8 410.5 309.7 407C308.5 403 307.7 397.7 307.8 393.5C307.8 389.6 308.5 384 309.3 381C310.1 377.9 312.4 372.6 314.3 369.2C316.2 365.8 317.148 363.652 317.3 363.5C317.452 363.348 317.8 362.5 318.3 362C318.8 361.5 321.7 358 324.4 355L329.3 349.5Z" fill="#031A70"/>
<path d="M155 509.5C87 513.621 78.8333 572.833 77 608.5H116.827C121.898 612.473 129.464 615 141 615C161.939 615 160.083 583.333 162 572C165.333 587 151 611 173 617C182.652 619.632 191.246 615.335 197.556 608.5C197.704 612.333 201.5 618.5 212.5 618.5C223.5 618.5 230 620 241.5 608.5C253 597 266.5 502.742 155 509.5Z" fill="white"/>
<path d="M105.5 582C106.899 591.534 108.491 601.97 116.827 608.5M208 579C209.964 586.858 205.628 599.756 197.556 608.5M116.827 608.5C121.898 612.473 129.464 615 141 615C161.939 615 160.083 583.333 162 572C165.333 587 151 611 173 617C182.652 619.632 191.246 615.335 197.556 608.5M116.827 608.5H77C78.8333 572.833 87 513.621 155 509.5C266.5 502.742 253 597 241.5 608.5C230 620 223.5 618.5 212.5 618.5C201.5 618.5 197.704 612.333 197.556 608.5" stroke="#031A70" stroke-width="5" stroke-linecap="round" stroke-linejoin="round"/>
<path d="M654.486 443.516C650.669 462.904 672.454 562.926 654 607H823L806.974 480.927V438.391C806.974 430.601 790.948 403.029 781.236 403.029C772.656 396.367 770.552 389.192 761.81 385.604C756.626 383.477 747.727 379.967 742.385 387.654L729.759 378.429C724.74 376.038 710.43 376.277 703.049 382.017C695.667 387.757 694.793 389.875 693.336 392.779C684.955 392.657 667.598 399.442 663.411 419.429C666.626 431.728 656.197 434.823 654.486 443.516Z" fill="white" stroke="#031A70" stroke-width="5" stroke-linecap="round" stroke-linejoin="round"/>
<path d="M775.5 483.5C775.5 497.307 764 503.5 738.5 506.5C714.5 511.5 702.5 503.807 702.5 490C702.5 476.193 718.618 460.5 738.5 460.5C758.382 460.5 775.5 469.693 775.5 483.5Z" fill="#F68C8E"/>
<ellipse cx="685.048" cy="467.58" rx="10" ry="15" transform="rotate(-15.0325 685.048 467.58)" fill="#F68C8E"/>
<ellipse cx="777.048" cy="445.58" rx="10" ry="15" transform="rotate(-15.0325 777.048 445.58)" fill="#F68C8E"/>
<ellipse cx="685.048" cy="467.58" rx="10" ry="15" transform="rotate(-15.0325 685.048 467.58)" fill="#F68C8E"/>
<ellipse cx="685.048" cy="467.58" rx="10" ry="15" transform="rotate(-15.0325 685.048 467.58)" fill="#F68C8E"/>
<ellipse cx="685.048" cy="467.58" rx="10" ry="15" transform="rotate(-15.0325 685.048 467.58)" fill="#F68C8E"/>
<ellipse cx="743.048" cy="426.58" rx="10" ry="15" transform="rotate(-15.0325 743.048 426.58)" fill="#F68C8E"/>
<ellipse cx="704.048" cy="435.58" rx="10" ry="15" transform="rotate(-15.0325 704.048 435.58)" fill="#F68C8E"/>
<path d="M283.5 28.9999C253.5 27.7999 221.333 150.5 209 212L221 217.5C229.5 211.5 246.5 197.6 246.5 190C242.9 185.2 252.667 161.667 258 150.5C259.167 153.167 263.8 158.5 273 158.5C271 153.3 279.167 131.333 283.5 121C285.333 125.5 289.2 133.5 290 129.5C290.8 125.5 297.333 119.5 300.5 117L307 131.5L319 115C313.333 86.3333 298.3 28.9999 283.5 28.9999Z" fill="#F68C8E" stroke="#F68C8E" stroke-width="5" stroke-linejoin="round"/>
<path d="M572.5 24.0087C602.5 22.8087 634.667 145.509 647 207.009L635 212.509C626.5 206.509 609.5 192.609 609.5 185.009C613.1 180.209 603.333 156.675 598 145.509C596.833 148.175 592.2 153.509 583 153.509C585 148.309 576.833 126.342 572.5 116.009C570.667 120.509 566.8 128.509 566 124.509C565.2 120.509 558.667 114.509 555.5 112.009L549 126.509L537 110.009C542.667 81.3421 557.7 24.0087 572.5 24.0087Z" fill="#F68C8E" stroke="#F68C8E" stroke-width="5" stroke-linejoin="round"/>
<ellipse cx="323.5" cy="300" rx="26.5" ry="25" fill="#031A70"/>
<ellipse cx="333.5" cy="287" rx="6.5" ry="6" fill="#FBFFF1"/>
<ellipse cx="531.5" cy="300" rx="26.5" ry="25" fill="#031A70"/>
<ellipse cx="541.5" cy="287" rx="6.5" ry="6" fill="#FBFFF1"/>
</svg>
