<svg width="983" height="252" viewBox="0 0 983 252" fill="none" xmlns="http://www.w3.org/2000/svg">
<path d="M90.2552 100.917C85.8766 105.289 85.9599 118.819 85.8766 127.895L106.769 152H219.862L235 95.6716L229.871 83.9313L226.993 80.4342L223.365 78.6857L231.247 75.3135L224.116 71.067L231.247 67.1952L227.369 66.3209L222.49 67.1952L228.495 55.5798L223.365 57.828C222.49 40.842 203.349 1.00001 196.468 1C189.721 0.999988 180.663 15.9876 176.326 25.7295C171.489 24.6054 161.439 23.0317 159.938 25.7295C156.035 23.3315 146.552 24.7304 142.298 25.7295C139.338 16.6121 127.911 0.999963 121.156 1C111.125 1.00005 103.308 38.8437 100.514 56.4541C99.5546 54.206 95.5095 55.5798 95.5095 55.5798C95.5095 55.5798 97.0526 62.1993 98.8873 65.6964L91.256 62.0744L95.5095 72.6907L91.256 70.5674C90.6723 71.6915 91.1309 75.0137 97.6363 79.3102C90.7306 81.3085 85.6681 98.3776 84 106.663C85.543 103.957 88.9541 99.0189 90.2552 100.917Z" fill="white" stroke="#031A70" stroke-width="2" stroke-linecap="round" stroke-linejoin="round"/>
<path d="M145.487 141C132.037 141 133.275 123.615 135.5 115.177L138 113.5L140.048 114.287C141.325 114.923 144.078 115.584 145.858 115.177C145.858 114.668 153.317 110.852 156.86 109.453V100.548C153.976 99.5733 148.133 96.3252 147.836 91.1352C147.539 85.9452 155.047 84.2235 158.838 84.0116C161.888 83.8844 168.407 84.7494 170.088 89.2271C171.769 93.7047 164.525 98.6403 160.693 100.548V109.453C164.451 109.656 171.077 115.686 171.077 115.686C172.5 116.5 178.5 119.855 178.5 121C175.137 126.088 164.278 128.746 159.827 128.661C157.108 138.71 158.937 141 145.487 141Z" fill="#031A70" stroke="#031A70" stroke-width="2"/>
<path d="M138.934 135.616C137.025 132.965 136.049 122.442 138.298 117.434C140.546 117.602 145.044 119.58 145.044 119.58C145.044 119.58 143.22 127.788 143.007 131.702C143.262 132.291 144.306 133.116 146.444 131.702C146.953 127.03 148.947 121.054 150.772 116.802C153.148 114.403 159.682 111.499 161.973 113.898C162.33 114.272 159.021 124.364 156.5 131.702C155.839 133.834 154.972 137.763 148.862 138.773C141.225 140.036 138.934 135.616 138.934 135.616Z" fill="#F68C8E"/>
<path d="M137.914 117.016L137.962 116.393C137.696 116.373 137.447 116.521 137.339 116.762L137.914 117.016ZM138.544 135.024L139.104 134.738L139.083 134.697L139.057 134.66L138.544 135.024ZM155.927 131.147L155.331 130.945L155.328 130.954L155.325 130.963L155.927 131.147ZM150.259 116.391L149.809 115.953C149.754 116.008 149.71 116.074 149.679 116.146L150.259 116.391ZM145.976 131.147L146.325 131.667L146.57 131.505L146.602 131.214L145.976 131.147ZM142.575 131.147L141.946 131.113L141.938 131.259L141.996 131.393L142.575 131.147ZM144.59 119.142L145.205 119.277C145.27 118.986 145.12 118.691 144.846 118.57L144.59 119.142ZM137.339 116.762C136.164 119.38 135.856 123.346 136.057 126.93C136.159 128.735 136.391 130.474 136.721 131.937C137.046 133.377 137.482 134.624 138.031 135.387L139.057 134.66C138.661 134.111 138.268 133.07 137.95 131.663C137.637 130.278 137.413 128.609 137.315 126.86C137.117 123.337 137.439 119.613 138.489 117.27L137.339 116.762ZM138.544 135.024C137.984 135.31 137.984 135.31 137.984 135.311C137.984 135.311 137.985 135.311 137.985 135.312C137.985 135.312 137.986 135.313 137.986 135.314C137.987 135.315 137.988 135.317 137.989 135.319C137.991 135.324 137.994 135.329 137.998 135.335C138.004 135.348 138.014 135.365 138.026 135.385C138.05 135.426 138.083 135.482 138.128 135.55C138.218 135.687 138.351 135.874 138.534 136.09C138.901 136.524 139.469 137.078 140.289 137.586C141.941 138.611 144.555 139.415 148.473 138.767L148.266 137.533C144.626 138.135 142.327 137.376 140.956 136.526C140.264 136.096 139.793 135.634 139.499 135.286C139.351 135.112 139.248 134.966 139.184 134.869C139.152 134.82 139.13 134.783 139.117 134.76C139.11 134.749 139.106 134.741 139.104 134.737C139.103 134.735 139.102 134.735 139.102 134.735C139.102 134.735 139.103 134.735 139.103 134.735C139.103 134.736 139.103 134.736 139.103 134.736C139.103 134.737 139.104 134.737 139.104 134.737C139.104 134.737 139.104 134.738 138.544 135.024ZM148.473 138.767C151.637 138.243 153.511 136.946 154.67 135.446C155.806 133.976 156.213 132.35 156.529 131.331L155.325 130.963C154.987 132.056 154.639 133.431 153.671 134.685C152.725 135.908 151.148 137.057 148.266 137.533L148.473 138.767ZM156.523 131.349C157.772 127.713 159.216 123.391 160.305 119.931C160.849 118.202 161.306 116.681 161.606 115.565C161.755 115.009 161.869 114.542 161.934 114.195C161.966 114.024 161.99 113.863 161.997 113.728C162.001 113.661 162.002 113.578 161.991 113.493C161.983 113.437 161.955 113.246 161.801 113.085L160.887 113.945C160.813 113.867 160.779 113.79 160.765 113.75C160.749 113.707 160.744 113.674 160.742 113.661C160.739 113.636 160.741 113.631 160.74 113.66C160.737 113.715 160.724 113.814 160.696 113.966C160.64 114.265 160.536 114.696 160.389 115.243C160.096 116.332 159.645 117.834 159.102 119.558C158.018 123.004 156.578 127.314 155.331 130.945L156.523 131.349ZM161.801 113.085C161.079 112.328 160.062 112.033 159.004 112.003C157.944 111.972 156.774 112.204 155.635 112.577C153.369 113.32 151.07 114.679 149.809 115.953L150.708 116.829C151.799 115.727 153.909 114.46 156.03 113.764C157.086 113.418 158.104 113.228 158.968 113.253C159.833 113.277 160.475 113.513 160.887 113.945L161.801 113.085ZM149.679 116.146C147.863 120.381 145.863 126.365 145.35 131.08L146.602 131.214C147.096 126.676 149.043 120.821 150.838 116.636L149.679 116.146ZM145.627 130.627C144.646 131.276 144.026 131.338 143.691 131.276C143.362 131.216 143.205 131.018 143.154 130.901L141.996 131.393C142.197 131.86 142.682 132.362 143.461 132.506C144.235 132.649 145.19 132.419 146.325 131.667L145.627 130.627ZM143.204 131.181C143.306 129.289 143.802 126.326 144.28 123.807C144.518 122.553 144.75 121.42 144.921 120.6C145.007 120.19 145.079 119.859 145.128 119.63C145.153 119.516 145.172 119.427 145.186 119.367C145.192 119.338 145.197 119.314 145.2 119.299C145.202 119.292 145.203 119.286 145.204 119.282C145.205 119.28 145.205 119.279 145.205 119.278C145.205 119.277 145.205 119.277 145.205 119.277C145.205 119.277 145.205 119.277 145.205 119.277C145.205 119.277 145.205 119.277 144.59 119.142C143.975 119.007 143.975 119.007 143.975 119.008C143.975 119.008 143.975 119.009 143.975 119.009C143.975 119.01 143.974 119.012 143.974 119.014C143.973 119.018 143.972 119.024 143.97 119.032C143.966 119.047 143.961 119.071 143.955 119.101C143.941 119.162 143.922 119.252 143.897 119.368C143.846 119.598 143.775 119.933 143.688 120.345C143.515 121.171 143.282 122.312 143.042 123.575C142.565 126.089 142.053 129.128 141.946 131.113L143.204 131.181ZM144.59 119.142C144.846 118.57 144.846 118.57 144.845 118.57C144.845 118.57 144.845 118.57 144.845 118.57C144.845 118.57 144.845 118.57 144.844 118.57C144.844 118.57 144.843 118.569 144.842 118.569C144.839 118.568 144.836 118.566 144.831 118.564C144.822 118.56 144.809 118.554 144.792 118.547C144.758 118.532 144.708 118.511 144.644 118.483C144.516 118.428 144.33 118.35 144.102 118.256C143.644 118.067 143.01 117.814 142.305 117.555C140.921 117.047 139.174 116.484 137.962 116.393L137.867 117.64C138.879 117.716 140.471 118.215 141.868 118.728C142.554 118.98 143.172 119.227 143.619 119.411C143.842 119.503 144.022 119.579 144.146 119.632C144.208 119.658 144.255 119.679 144.287 119.693C144.303 119.7 144.316 119.705 144.324 119.709C144.328 119.71 144.331 119.712 144.332 119.712C144.333 119.713 144.334 119.713 144.334 119.713C144.335 119.713 144.335 119.714 144.335 119.714C144.335 119.714 144.335 119.714 144.59 119.142Z" fill="#F68C8E"/>
<path fill-rule="evenodd" clip-rule="evenodd" d="M183.745 88L184.753 88.7803C185.307 89.2083 186.34 90.1396 187.02 90.8696C187.725 91.5996 188.481 92.4806 188.733 92.8582C188.985 93.2358 189.438 94.0916 189.766 94.7964C190.118 95.4761 190.521 96.5585 190.698 97.1878C190.849 97.7919 191 99.1008 191 100.083C191 101.039 190.798 102.575 190.572 103.481C190.345 104.362 189.841 105.847 189.438 106.753C189.06 107.634 188.355 108.943 187.876 109.648C187.372 110.328 186.768 111.284 186.541 111.788C186.138 112.568 178.166 123.392 177.914 122.989C177.738 122.762 175.37 119.238 175.269 119.339C175.143 119.44 171.49 115.815 171.238 115.563C170.987 115.689 170.861 115.752 171.238 115.563C171.882 115.563 174.891 116.193 179.425 113.801C179.503 113.76 182.952 111.284 183.078 111.158C183.33 110.906 184.425 109.824 184.979 109.144C185.559 108.44 186.516 107.03 187.095 105.998C187.7 104.941 188.405 103.355 188.682 102.474C188.985 101.467 189.186 100.133 189.161 99.0757C189.161 98.094 188.985 96.6843 188.783 95.9292C188.582 95.1488 188.002 93.8147 187.524 92.9589C187.045 92.103 186.806 91.5623 186.768 91.5241C186.73 91.4858 186.642 91.2724 186.516 91.1465C186.39 91.0206 185.659 90.1396 184.979 89.3845L183.745 88Z" fill="#031A70"/>
<path fill-rule="evenodd" clip-rule="evenodd" d="M135.432 88L134.4 88.7674C133.832 89.1883 132.774 90.1042 132.077 90.8221C131.355 91.54 130.581 92.4065 130.323 92.7778C130.065 93.1492 129.6 93.9908 129.265 94.684C128.903 95.3524 128.49 96.4169 128.31 97.0358C128.155 97.6299 128 98.9172 128 99.8827C128 100.823 128.206 102.333 128.439 103.225C128.671 104.091 129.187 105.552 129.6 106.443C129.987 107.309 130.71 108.597 131.2 109.29C131.716 109.958 132.335 110.899 132.568 111.394C132.981 112.161 135.871 116.37 136.129 115.974C136.129 115.974 136.8 115.503 136.903 115.602C136.903 115.602 139.742 113.87 140 113.622C138.323 112.498 136.903 111.815 135.69 110.651C135.432 110.404 135.226 110.03 134.168 108.795C133.574 108.102 132.594 106.715 132 105.7C131.381 104.66 130.658 103.101 130.374 102.234C130.065 101.244 129.858 99.9322 129.884 98.8924C129.884 97.927 130.065 96.5407 130.271 95.798C130.477 95.0306 131.071 93.7185 131.561 92.8768C132.052 92.0352 132.296 91.5034 132.335 91.4658C132.375 91.4281 132.465 91.2182 132.594 91.0944C132.723 90.9707 133.471 90.1042 134.168 89.3616L135.432 88Z" fill="#031A70"/>
<path d="M91.5007 127.089C74.5001 128.143 72.4583 143.297 72 152.424H81.9571C83.2249 153.441 85.1165 154.088 88.0006 154.088C93.2355 154.088 92.7715 145.984 93.2508 143.083C94.084 146.922 90.5007 153.064 96.0009 154.6C98.4139 155.273 100.563 154.174 102.14 152.424C102.177 153.405 103.126 154.984 105.876 154.984C108.626 154.984 110.251 155.367 113.126 152.424C116.002 149.481 119.377 125.359 91.5007 127.089Z" fill="white"/>
<path d="M79.1253 145.643C79.475 148.083 79.873 150.753 81.9571 152.424M81.9571 152.424C83.2249 153.441 85.1165 154.088 88.0006 154.088C93.2355 154.088 92.7715 145.984 93.2508 143.083C94.084 146.922 90.5007 153.064 96.0009 154.6C98.4139 155.273 100.563 154.174 102.14 152.424M81.9571 152.424H72C72.4583 143.297 74.5001 128.143 91.5007 127.089C119.377 125.359 116.002 149.481 113.126 152.424C110.251 155.367 108.626 154.984 105.876 154.984C103.126 154.984 102.177 153.405 102.14 152.424M104.751 144.875C105.242 146.886 104.158 150.187 102.14 152.424" stroke="#031A70" stroke-width="2" stroke-linecap="round" stroke-linejoin="round"/>
<path d="M216.121 110.774C215.172 115.663 220.586 140.886 216 152H258L254.017 120.208V109.481C254.017 107.517 250.034 100.564 247.621 100.564C245.488 98.8838 244.966 97.0745 242.793 96.1697C241.505 95.6333 239.293 94.7482 237.966 96.6867L234.828 94.3604C233.58 93.7574 230.024 93.8177 228.19 95.2652C226.355 96.7126 226.138 97.2467 225.776 97.979C223.693 97.9483 219.379 99.6593 218.339 104.699C219.138 107.801 216.546 108.581 216.121 110.774Z" fill="white" stroke="#031A70" stroke-width="2" stroke-linecap="round" stroke-linejoin="round"/>
<path d="M246 121.323C246 124.518 243.164 125.951 236.877 126.646C230.959 127.803 228 126.022 228 122.827C228 119.632 231.974 116 236.877 116C241.779 116 246 118.127 246 121.323Z" fill="#F68C8E"/>
<path d="M224.854 120.712C226.19 120.353 226.836 118.437 226.298 116.433C225.76 114.429 224.241 113.095 222.904 113.454C221.568 113.813 220.921 115.728 221.46 117.732C221.998 119.737 223.517 121.07 224.854 120.712Z" fill="#F68C8E"/>
<path d="M247.899 115.201C249.235 114.842 249.882 112.926 249.344 110.922C248.806 108.918 247.286 107.584 245.95 107.943C244.614 108.302 243.967 110.217 244.506 112.221C245.044 114.226 246.563 115.559 247.899 115.201Z" fill="#F68C8E"/>
<path d="M224.854 120.712C226.19 120.353 226.836 118.437 226.298 116.433C225.76 114.429 224.241 113.095 222.904 113.454C221.568 113.813 220.921 115.728 221.46 117.732C221.998 119.737 223.517 121.07 224.854 120.712Z" fill="#F68C8E"/>
<path d="M224.854 120.712C226.19 120.353 226.836 118.437 226.298 116.433C225.76 114.429 224.241 113.095 222.904 113.454C221.568 113.813 220.921 115.728 221.46 117.732C221.998 119.737 223.517 121.07 224.854 120.712Z" fill="#F68C8E"/>
<path d="M224.854 120.712C226.19 120.353 226.836 118.437 226.298 116.433C225.76 114.429 224.241 113.095 222.904 113.454C221.568 113.813 220.921 115.728 221.46 117.732C221.998 119.737 223.517 121.07 224.854 120.712Z" fill="#F68C8E"/>
<path d="M239.382 110.441C240.718 110.082 241.365 108.167 240.827 106.163C240.289 104.158 238.769 102.825 237.433 103.183C236.097 103.542 235.45 105.458 235.989 107.462C236.527 109.466 238.046 110.8 239.382 110.441Z" fill="#F68C8E"/>
<path d="M229.613 112.696C230.949 112.337 231.596 110.421 231.058 108.417C230.519 106.413 229 105.079 227.664 105.438C226.328 105.797 225.681 107.712 226.219 109.716C226.757 111.721 228.277 113.054 229.613 112.696Z" fill="#F68C8E"/>
<path d="M122.964 7.00222C115.327 6.69667 107.139 37.9398 104 53.5995L107.055 55C109.218 53.4722 113.545 49.9329 113.545 47.9977C112.629 46.7755 115.115 40.7832 116.473 37.9398C116.77 38.6189 117.949 39.9768 120.291 39.9768C119.782 38.6528 121.861 33.0593 122.964 30.4282C123.43 31.574 124.415 33.6111 124.618 32.5926C124.822 31.574 126.485 30.0463 127.291 29.4097L128.945 33.1018L132 28.9004C130.557 21.601 126.731 7.00222 122.964 7.00222Z" fill="#F68C8E" stroke="#F68C8E" stroke-width="2" stroke-linejoin="round"/>
<path d="M195.036 6.00218C202.673 5.70299 210.861 36.2952 214 51.6287L210.945 53C208.782 51.5041 204.455 48.0384 204.455 46.1436C205.371 44.9468 202.885 39.0792 201.527 36.2952C201.23 36.9599 200.051 38.2898 197.709 38.2898C198.218 36.9933 196.139 31.5164 195.036 28.9401C194.57 30.0621 193.585 32.0567 193.382 31.0594C193.178 30.0621 191.515 28.5662 190.709 27.9428L189.055 31.5581L186 27.4442C187.443 20.2968 191.269 6.00218 195.036 6.00218Z" fill="#F68C8E" stroke="#F68C8E" stroke-width="2" stroke-linejoin="round"/>
<path d="M133.5 82C137.09 82 140 79.0899 140 75.5C140 71.9101 137.09 69 133.5 69C129.91 69 127 71.9101 127 75.5C127 79.0899 129.91 82 133.5 82Z" fill="#031A70"/>
<path d="M135.5 74C136.328 74 137 73.1046 137 72C137 70.8954 136.328 70 135.5 70C134.672 70 134 70.8954 134 72C134 73.1046 134.672 74 135.5 74Z" fill="#FBFFF1"/>
<path d="M185 82C188.866 82 192 79.0899 192 75.5C192 71.9101 188.866 69 185 69C181.134 69 178 71.9101 178 75.5C178 79.0899 181.134 82 185 82Z" fill="#031A70"/>
<path d="M187.5 74C188.328 74 189 73.1046 189 72C189 70.8954 188.328 70 187.5 70C186.672 70 186 70.8954 186 72C186 73.1046 186.672 74 187.5 74Z" fill="#FBFFF1"/>
<mask id="path-24-outside-1_36_6" maskUnits="userSpaceOnUse" x="0" y="137" width="983" height="115" fill="black">
<rect fill="white" y="137" width="983" height="115"/>
<path d="M52.1875 163.5C51.7188 159.542 49.8177 156.469 46.4844 154.281C43.151 152.094 39.0625 151 34.2188 151C30.6771 151 27.5781 151.573 24.9219 152.719C22.2917 153.865 20.2344 155.44 18.75 157.445C17.2917 159.451 16.5625 161.729 16.5625 164.281C16.5625 166.417 17.0703 168.253 18.0859 169.789C19.1276 171.299 20.4557 172.562 22.0703 173.578C23.6849 174.568 25.3776 175.388 27.1484 176.039C28.9193 176.664 30.5469 177.172 32.0312 177.562L40.1562 179.75C42.2396 180.297 44.5573 181.052 47.1094 182.016C49.6875 182.979 52.1484 184.294 54.4922 185.961C56.862 187.602 58.8151 189.711 60.3516 192.289C61.888 194.867 62.6563 198.031 62.6563 201.781C62.6563 206.104 61.5234 210.01 59.2578 213.5C57.0182 216.99 53.737 219.763 49.4141 221.82C45.1172 223.878 39.8958 224.906 33.75 224.906C28.0208 224.906 23.0599 223.982 18.8672 222.133C14.7005 220.284 11.4193 217.706 9.02344 214.398C6.65365 211.091 5.3125 207.25 5 202.875H15C15.2604 205.896 16.276 208.396 18.0469 210.375C19.8438 212.328 22.1094 213.786 24.8438 214.75C27.6042 215.687 30.5729 216.156 33.75 216.156C37.4479 216.156 40.7682 215.557 43.7109 214.359C46.6536 213.135 48.9844 211.443 50.7031 209.281C52.4219 207.094 53.2812 204.542 53.2812 201.625C53.2812 198.969 52.5391 196.807 51.0547 195.141C49.5703 193.474 47.6172 192.12 45.1953 191.078C42.7734 190.036 40.1563 189.125 37.3438 188.344L27.5 185.531C21.25 183.734 16.3021 181.169 12.6562 177.836C9.01042 174.503 7.1875 170.141 7.1875 164.75C7.1875 160.271 8.39844 156.365 10.8203 153.031C13.2682 149.672 16.5495 147.068 20.6641 145.219C24.8047 143.344 29.4271 142.406 34.5312 142.406C39.6875 142.406 44.2708 143.331 48.2812 145.18C52.2917 147.003 55.4688 149.503 57.8125 152.68C60.1823 155.857 61.4323 159.464 61.5625 163.5H52.1875Z"/>
<path d="M77.334 246V163.5H86.2402V173.031H87.334C88.0111 171.99 88.9486 170.661 90.1465 169.047C91.3704 167.406 93.1152 165.948 95.3809 164.672C97.6725 163.37 100.771 162.719 104.678 162.719C109.73 162.719 114.183 163.982 118.037 166.508C121.891 169.034 124.899 172.615 127.061 177.25C129.222 181.885 130.303 187.354 130.303 193.656C130.303 200.01 129.222 205.518 127.061 210.18C124.899 214.815 121.904 218.409 118.076 220.961C114.248 223.487 109.834 224.75 104.834 224.75C100.98 224.75 97.8939 224.112 95.5762 222.836C93.2585 221.534 91.4746 220.062 90.2246 218.422C88.9746 216.755 88.0111 215.375 87.334 214.281H86.5527V246H77.334ZM86.3965 193.5C86.3965 198.031 87.0605 202.029 88.3887 205.492C89.7168 208.93 91.6569 211.625 94.209 213.578C96.7611 215.505 99.8861 216.469 103.584 216.469C107.438 216.469 110.654 215.453 113.232 213.422C115.837 211.365 117.79 208.604 119.092 205.141C120.42 201.651 121.084 197.771 121.084 193.5C121.084 189.281 120.433 185.479 119.131 182.094C117.855 178.682 115.915 175.987 113.311 174.008C110.732 172.003 107.49 171 103.584 171C99.834 171 96.6829 171.951 94.1309 173.852C91.5788 175.727 89.6517 178.357 88.3496 181.742C87.0475 185.102 86.3965 189.021 86.3965 193.5Z"/>
<path d="M169.521 224.75C163.74 224.75 158.753 223.474 154.561 220.922C150.394 218.344 147.178 214.75 144.912 210.141C142.673 205.505 141.553 200.115 141.553 193.969C141.553 187.823 142.673 182.406 144.912 177.719C147.178 173.005 150.329 169.333 154.365 166.703C158.428 164.047 163.167 162.719 168.584 162.719C171.709 162.719 174.795 163.24 177.842 164.281C180.889 165.323 183.662 167.016 186.162 169.359C188.662 171.677 190.654 174.75 192.139 178.578C193.623 182.406 194.365 187.12 194.365 192.719V196.625H148.115V188.656H184.99C184.99 185.271 184.313 182.25 182.959 179.594C181.631 176.937 179.73 174.841 177.256 173.305C174.808 171.768 171.917 171 168.584 171C164.912 171 161.735 171.911 159.053 173.734C156.396 175.531 154.352 177.875 152.92 180.766C151.488 183.656 150.771 186.755 150.771 190.062V195.375C150.771 199.906 151.553 203.747 153.115 206.898C154.704 210.023 156.904 212.406 159.717 214.047C162.529 215.661 165.798 216.469 169.521 216.469C171.943 216.469 174.131 216.13 176.084 215.453C178.063 214.75 179.769 213.708 181.201 212.328C182.633 210.922 183.74 209.177 184.521 207.094L193.428 209.594C192.49 212.615 190.915 215.271 188.701 217.562C186.488 219.828 183.753 221.599 180.498 222.875C177.243 224.125 173.584 224.75 169.521 224.75Z"/>
<path d="M226.045 224.906C222.243 224.906 218.792 224.19 215.693 222.758C212.594 221.299 210.133 219.203 208.311 216.469C206.488 213.708 205.576 210.375 205.576 206.469C205.576 203.031 206.253 200.245 207.607 198.109C208.962 195.948 210.771 194.255 213.037 193.031C215.303 191.807 217.803 190.896 220.537 190.297C223.298 189.672 226.071 189.177 228.857 188.812C232.503 188.344 235.459 187.992 237.725 187.758C240.016 187.497 241.683 187.068 242.725 186.469C243.792 185.87 244.326 184.828 244.326 183.344V183.031C244.326 179.177 243.271 176.182 241.162 174.047C239.079 171.911 235.915 170.844 231.67 170.844C227.269 170.844 223.818 171.807 221.318 173.734C218.818 175.661 217.061 177.719 216.045 179.906L207.295 176.781C208.857 173.135 210.941 170.297 213.545 168.266C216.175 166.208 219.04 164.776 222.139 163.969C225.264 163.135 228.337 162.719 231.357 162.719C233.285 162.719 235.498 162.953 237.998 163.422C240.524 163.865 242.959 164.789 245.303 166.195C247.673 167.602 249.639 169.724 251.201 172.562C252.764 175.401 253.545 179.203 253.545 183.969V223.5H244.326V215.375H243.857C243.232 216.677 242.191 218.07 240.732 219.555C239.274 221.039 237.334 222.302 234.912 223.344C232.49 224.385 229.535 224.906 226.045 224.906ZM227.451 216.625C231.097 216.625 234.17 215.909 236.67 214.477C239.196 213.044 241.097 211.195 242.373 208.93C243.675 206.664 244.326 204.281 244.326 201.781V193.344C243.936 193.812 243.076 194.242 241.748 194.633C240.446 194.997 238.936 195.323 237.217 195.609C235.524 195.87 233.87 196.104 232.256 196.312C230.667 196.495 229.378 196.651 228.389 196.781C225.993 197.094 223.753 197.602 221.67 198.305C219.613 198.982 217.946 200.01 216.67 201.391C215.42 202.745 214.795 204.594 214.795 206.938C214.795 210.141 215.98 212.562 218.35 214.203C220.745 215.818 223.779 216.625 227.451 216.625Z"/>
<path d="M278.965 201.625L278.809 190.219H280.684L306.934 163.5H318.34L290.371 191.781H289.59L278.965 201.625ZM270.371 223.5V143.5H279.59V223.5H270.371ZM308.496 223.5L285.059 193.812L291.621 187.406L320.215 223.5H308.496Z"/>
<path d="M331.455 223.5V143.5H379.736V152.094H341.143V179.125H377.236V187.719H341.143V214.906H380.361V223.5H331.455Z"/>
<path d="M405.166 187.406V223.5H395.947V163.5H404.854V172.875H405.635C407.041 169.828 409.176 167.38 412.041 165.531C414.906 163.656 418.604 162.719 423.135 162.719C427.197 162.719 430.752 163.552 433.799 165.219C436.846 166.859 439.215 169.359 440.908 172.719C442.601 176.052 443.447 180.271 443.447 185.375V223.5H434.229V186C434.229 181.286 433.005 177.615 430.557 174.984C428.109 172.328 424.749 171 420.479 171C417.536 171 414.906 171.638 412.588 172.914C410.296 174.19 408.486 176.052 407.158 178.5C405.83 180.948 405.166 183.917 405.166 187.406Z"/>
<path d="M484.512 247.25C480.059 247.25 476.23 246.677 473.027 245.531C469.824 244.411 467.155 242.927 465.02 241.078C462.91 239.255 461.23 237.302 459.98 235.219L467.324 230.062C468.158 231.156 469.212 232.406 470.488 233.812C471.764 235.245 473.509 236.482 475.723 237.523C477.962 238.591 480.892 239.125 484.512 239.125C489.355 239.125 493.353 237.953 496.504 235.609C499.655 233.266 501.23 229.594 501.23 224.594V212.406H500.449C499.772 213.5 498.809 214.854 497.559 216.469C496.335 218.057 494.564 219.477 492.246 220.727C489.954 221.951 486.855 222.562 482.949 222.562C478.105 222.562 473.757 221.417 469.902 219.125C466.074 216.833 463.04 213.5 460.801 209.125C458.587 204.75 457.48 199.437 457.48 193.188C457.48 187.042 458.561 181.69 460.723 177.133C462.884 172.549 465.892 169.008 469.746 166.508C473.6 163.982 478.053 162.719 483.105 162.719C487.012 162.719 490.111 163.37 492.402 164.672C494.72 165.948 496.491 167.406 497.715 169.047C498.965 170.661 499.928 171.99 500.605 173.031H501.543V163.5H510.449V225.219C510.449 230.375 509.277 234.568 506.934 237.797C504.616 241.052 501.491 243.435 497.559 244.945C493.652 246.482 489.303 247.25 484.512 247.25ZM484.199 214.281C487.897 214.281 491.022 213.435 493.574 211.742C496.126 210.049 498.066 207.615 499.395 204.438C500.723 201.26 501.387 197.458 501.387 193.031C501.387 188.708 500.736 184.893 499.434 181.586C498.132 178.279 496.204 175.688 493.652 173.812C491.1 171.937 487.949 171 484.199 171C480.293 171 477.038 171.99 474.434 173.969C471.855 175.948 469.915 178.604 468.613 181.938C467.337 185.271 466.699 188.969 466.699 193.031C466.699 197.198 467.35 200.883 468.652 204.086C469.98 207.263 471.934 209.763 474.512 211.586C477.116 213.383 480.345 214.281 484.199 214.281Z"/>
<path d="M536.543 143.5V223.5H527.324V143.5H536.543Z"/>
<path d="M553.428 223.5V163.5H562.646V223.5H553.428ZM558.115 153.5C556.318 153.5 554.769 152.888 553.467 151.664C552.191 150.44 551.553 148.969 551.553 147.25C551.553 145.531 552.191 144.06 553.467 142.836C554.769 141.612 556.318 141 558.115 141C559.912 141 561.449 141.612 562.725 142.836C564.027 144.06 564.678 145.531 564.678 147.25C564.678 148.969 564.027 150.44 562.725 151.664C561.449 152.888 559.912 153.5 558.115 153.5Z"/>
<path d="M622.031 176.938L613.75 179.281C613.229 177.901 612.461 176.56 611.445 175.258C610.456 173.93 609.102 172.836 607.383 171.977C605.664 171.117 603.464 170.687 600.781 170.687C597.109 170.687 594.049 171.534 591.602 173.227C589.18 174.893 587.969 177.016 587.969 179.594C587.969 181.885 588.802 183.695 590.469 185.023C592.135 186.352 594.74 187.458 598.281 188.344L607.188 190.531C612.552 191.833 616.549 193.826 619.18 196.508C621.81 199.164 623.125 202.589 623.125 206.781C623.125 210.219 622.135 213.292 620.156 216C618.203 218.708 615.469 220.844 611.953 222.406C608.437 223.969 604.349 224.75 599.688 224.75C593.568 224.75 588.503 223.422 584.492 220.766C580.482 218.109 577.943 214.229 576.875 209.125L585.625 206.938C586.458 210.167 588.034 212.589 590.352 214.203C592.695 215.818 595.755 216.625 599.531 216.625C603.828 216.625 607.24 215.714 609.766 213.891C612.318 212.042 613.594 209.828 613.594 207.25C613.594 205.167 612.865 203.422 611.406 202.016C609.948 200.583 607.708 199.516 604.688 198.812L594.688 196.469C589.193 195.167 585.156 193.148 582.578 190.414C580.026 187.654 578.75 184.203 578.75 180.062C578.75 176.677 579.701 173.682 581.602 171.078C583.529 168.474 586.146 166.43 589.453 164.945C592.786 163.461 596.562 162.719 600.781 162.719C606.719 162.719 611.38 164.021 614.766 166.625C618.177 169.229 620.599 172.667 622.031 176.938Z"/>
<path d="M646.221 187.406V223.5H637.002V143.5H646.221V172.875H647.002C648.408 169.776 650.518 167.315 653.33 165.492C656.169 163.643 659.945 162.719 664.658 162.719C668.747 162.719 672.327 163.539 675.4 165.18C678.473 166.794 680.856 169.281 682.549 172.641C684.268 175.974 685.127 180.219 685.127 185.375V223.5H675.908V186C675.908 181.234 674.671 177.549 672.197 174.945C669.749 172.315 666.351 171 662.002 171C658.981 171 656.273 171.638 653.877 172.914C651.507 174.19 649.632 176.052 648.252 178.5C646.898 180.948 646.221 183.917 646.221 187.406Z"/>
<path d="M693.818 152.094V143.5H753.818V152.094H728.662V223.5H718.975V152.094H693.818Z"/>
<path d="M783.193 224.75C777.777 224.75 773.024 223.461 768.936 220.883C764.873 218.305 761.696 214.698 759.404 210.062C757.139 205.427 756.006 200.01 756.006 193.812C756.006 187.562 757.139 182.107 759.404 177.445C761.696 172.784 764.873 169.164 768.936 166.586C773.024 164.008 777.777 162.719 783.193 162.719C788.61 162.719 793.35 164.008 797.412 166.586C801.501 169.164 804.678 172.784 806.943 177.445C809.235 182.107 810.381 187.562 810.381 193.812C810.381 200.01 809.235 205.427 806.943 210.062C804.678 214.698 801.501 218.305 797.412 220.883C793.35 223.461 788.61 224.75 783.193 224.75ZM783.193 216.469C787.308 216.469 790.693 215.414 793.35 213.305C796.006 211.195 797.972 208.422 799.248 204.984C800.524 201.547 801.162 197.823 801.162 193.812C801.162 189.802 800.524 186.065 799.248 182.602C797.972 179.138 796.006 176.339 793.35 174.203C790.693 172.068 787.308 171 783.193 171C779.079 171 775.693 172.068 773.037 174.203C770.381 176.339 768.415 179.138 767.139 182.602C765.863 186.065 765.225 189.802 765.225 193.812C765.225 197.823 765.863 201.547 767.139 204.984C768.415 208.422 770.381 211.195 773.037 213.305C775.693 215.414 779.079 216.469 783.193 216.469Z"/>
<path d="M847.109 224.75C842.109 224.75 837.695 223.487 833.867 220.961C830.039 218.409 827.044 214.815 824.883 210.18C822.721 205.518 821.641 200.01 821.641 193.656C821.641 187.354 822.721 181.885 824.883 177.25C827.044 172.615 830.052 169.034 833.906 166.508C837.76 163.982 842.214 162.719 847.266 162.719C851.172 162.719 854.258 163.37 856.523 164.672C858.815 165.948 860.56 167.406 861.758 169.047C862.982 170.661 863.932 171.99 864.609 173.031H865.391V143.5H874.609V223.5H865.703V214.281H864.609C863.932 215.375 862.969 216.755 861.719 218.422C860.469 220.062 858.685 221.534 856.367 222.836C854.049 224.112 850.964 224.75 847.109 224.75ZM848.359 216.469C852.057 216.469 855.182 215.505 857.734 213.578C860.286 211.625 862.227 208.93 863.555 205.492C864.883 202.029 865.547 198.031 865.547 193.5C865.547 189.021 864.896 185.102 863.594 181.742C862.292 178.357 860.365 175.727 857.812 173.852C855.26 171.951 852.109 171 848.359 171C844.453 171 841.198 172.003 838.594 174.008C836.016 175.987 834.076 178.682 832.773 182.094C831.497 185.479 830.859 189.281 830.859 193.5C830.859 197.771 831.51 201.651 832.812 205.141C834.141 208.604 836.094 211.365 838.672 213.422C841.276 215.453 844.505 216.469 848.359 216.469Z"/>
<path d="M897.305 223.5H887.148L916.523 143.5H926.523L955.898 223.5H945.742L921.836 156.156H921.211L897.305 223.5ZM901.055 192.25H941.992V200.844H901.055V192.25Z"/>
<path d="M978.047 143.5V223.5H968.359V143.5H978.047Z"/>
</mask>
<path d="M52.1875 163.5C51.7188 159.542 49.8177 156.469 46.4844 154.281C43.151 152.094 39.0625 151 34.2188 151C30.6771 151 27.5781 151.573 24.9219 152.719C22.2917 153.865 20.2344 155.44 18.75 157.445C17.2917 159.451 16.5625 161.729 16.5625 164.281C16.5625 166.417 17.0703 168.253 18.0859 169.789C19.1276 171.299 20.4557 172.562 22.0703 173.578C23.6849 174.568 25.3776 175.388 27.1484 176.039C28.9193 176.664 30.5469 177.172 32.0312 177.562L40.1562 179.75C42.2396 180.297 44.5573 181.052 47.1094 182.016C49.6875 182.979 52.1484 184.294 54.4922 185.961C56.862 187.602 58.8151 189.711 60.3516 192.289C61.888 194.867 62.6563 198.031 62.6563 201.781C62.6563 206.104 61.5234 210.01 59.2578 213.5C57.0182 216.99 53.737 219.763 49.4141 221.82C45.1172 223.878 39.8958 224.906 33.75 224.906C28.0208 224.906 23.0599 223.982 18.8672 222.133C14.7005 220.284 11.4193 217.706 9.02344 214.398C6.65365 211.091 5.3125 207.25 5 202.875H15C15.2604 205.896 16.276 208.396 18.0469 210.375C19.8438 212.328 22.1094 213.786 24.8438 214.75C27.6042 215.687 30.5729 216.156 33.75 216.156C37.4479 216.156 40.7682 215.557 43.7109 214.359C46.6536 213.135 48.9844 211.443 50.7031 209.281C52.4219 207.094 53.2812 204.542 53.2812 201.625C53.2812 198.969 52.5391 196.807 51.0547 195.141C49.5703 193.474 47.6172 192.12 45.1953 191.078C42.7734 190.036 40.1563 189.125 37.3438 188.344L27.5 185.531C21.25 183.734 16.3021 181.169 12.6562 177.836C9.01042 174.503 7.1875 170.141 7.1875 164.75C7.1875 160.271 8.39844 156.365 10.8203 153.031C13.2682 149.672 16.5495 147.068 20.6641 145.219C24.8047 143.344 29.4271 142.406 34.5312 142.406C39.6875 142.406 44.2708 143.331 48.2812 145.18C52.2917 147.003 55.4688 149.503 57.8125 152.68C60.1823 155.857 61.4323 159.464 61.5625 163.5H52.1875Z" fill="#031A70"/>
<path d="M77.334 246V163.5H86.2402V173.031H87.334C88.0111 171.99 88.9486 170.661 90.1465 169.047C91.3704 167.406 93.1152 165.948 95.3809 164.672C97.6725 163.37 100.771 162.719 104.678 162.719C109.73 162.719 114.183 163.982 118.037 166.508C121.891 169.034 124.899 172.615 127.061 177.25C129.222 181.885 130.303 187.354 130.303 193.656C130.303 200.01 129.222 205.518 127.061 210.18C124.899 214.815 121.904 218.409 118.076 220.961C114.248 223.487 109.834 224.75 104.834 224.75C100.98 224.75 97.8939 224.112 95.5762 222.836C93.2585 221.534 91.4746 220.062 90.2246 218.422C88.9746 216.755 88.0111 215.375 87.334 214.281H86.5527V246H77.334ZM86.3965 193.5C86.3965 198.031 87.0605 202.029 88.3887 205.492C89.7168 208.93 91.6569 211.625 94.209 213.578C96.7611 215.505 99.8861 216.469 103.584 216.469C107.438 216.469 110.654 215.453 113.232 213.422C115.837 211.365 117.79 208.604 119.092 205.141C120.42 201.651 121.084 197.771 121.084 193.5C121.084 189.281 120.433 185.479 119.131 182.094C117.855 178.682 115.915 175.987 113.311 174.008C110.732 172.003 107.49 171 103.584 171C99.834 171 96.6829 171.951 94.1309 173.852C91.5788 175.727 89.6517 178.357 88.3496 181.742C87.0475 185.102 86.3965 189.021 86.3965 193.5Z" fill="#031A70"/>
<path d="M169.521 224.75C163.74 224.75 158.753 223.474 154.561 220.922C150.394 218.344 147.178 214.75 144.912 210.141C142.673 205.505 141.553 200.115 141.553 193.969C141.553 187.823 142.673 182.406 144.912 177.719C147.178 173.005 150.329 169.333 154.365 166.703C158.428 164.047 163.167 162.719 168.584 162.719C171.709 162.719 174.795 163.24 177.842 164.281C180.889 165.323 183.662 167.016 186.162 169.359C188.662 171.677 190.654 174.75 192.139 178.578C193.623 182.406 194.365 187.12 194.365 192.719V196.625H148.115V188.656H184.99C184.99 185.271 184.313 182.25 182.959 179.594C181.631 176.937 179.73 174.841 177.256 173.305C174.808 171.768 171.917 171 168.584 171C164.912 171 161.735 171.911 159.053 173.734C156.396 175.531 154.352 177.875 152.92 180.766C151.488 183.656 150.771 186.755 150.771 190.062V195.375C150.771 199.906 151.553 203.747 153.115 206.898C154.704 210.023 156.904 212.406 159.717 214.047C162.529 215.661 165.798 216.469 169.521 216.469C171.943 216.469 174.131 216.13 176.084 215.453C178.063 214.75 179.769 213.708 181.201 212.328C182.633 210.922 183.74 209.177 184.521 207.094L193.428 209.594C192.49 212.615 190.915 215.271 188.701 217.562C186.488 219.828 183.753 221.599 180.498 222.875C177.243 224.125 173.584 224.75 169.521 224.75Z" fill="#031A70"/>
<path d="M226.045 224.906C222.243 224.906 218.792 224.19 215.693 222.758C212.594 221.299 210.133 219.203 208.311 216.469C206.488 213.708 205.576 210.375 205.576 206.469C205.576 203.031 206.253 200.245 207.607 198.109C208.962 195.948 210.771 194.255 213.037 193.031C215.303 191.807 217.803 190.896 220.537 190.297C223.298 189.672 226.071 189.177 228.857 188.812C232.503 188.344 235.459 187.992 237.725 187.758C240.016 187.497 241.683 187.068 242.725 186.469C243.792 185.87 244.326 184.828 244.326 183.344V183.031C244.326 179.177 243.271 176.182 241.162 174.047C239.079 171.911 235.915 170.844 231.67 170.844C227.269 170.844 223.818 171.807 221.318 173.734C218.818 175.661 217.061 177.719 216.045 179.906L207.295 176.781C208.857 173.135 210.941 170.297 213.545 168.266C216.175 166.208 219.04 164.776 222.139 163.969C225.264 163.135 228.337 162.719 231.357 162.719C233.285 162.719 235.498 162.953 237.998 163.422C240.524 163.865 242.959 164.789 245.303 166.195C247.673 167.602 249.639 169.724 251.201 172.562C252.764 175.401 253.545 179.203 253.545 183.969V223.5H244.326V215.375H243.857C243.232 216.677 242.191 218.07 240.732 219.555C239.274 221.039 237.334 222.302 234.912 223.344C232.49 224.385 229.535 224.906 226.045 224.906ZM227.451 216.625C231.097 216.625 234.17 215.909 236.67 214.477C239.196 213.044 241.097 211.195 242.373 208.93C243.675 206.664 244.326 204.281 244.326 201.781V193.344C243.936 193.812 243.076 194.242 241.748 194.633C240.446 194.997 238.936 195.323 237.217 195.609C235.524 195.87 233.87 196.104 232.256 196.312C230.667 196.495 229.378 196.651 228.389 196.781C225.993 197.094 223.753 197.602 221.67 198.305C219.613 198.982 217.946 200.01 216.67 201.391C215.42 202.745 214.795 204.594 214.795 206.938C214.795 210.141 215.98 212.562 218.35 214.203C220.745 215.818 223.779 216.625 227.451 216.625Z" fill="#031A70"/>
<path d="M278.965 201.625L278.809 190.219H280.684L306.934 163.5H318.34L290.371 191.781H289.59L278.965 201.625ZM270.371 223.5V143.5H279.59V223.5H270.371ZM308.496 223.5L285.059 193.812L291.621 187.406L320.215 223.5H308.496Z" fill="#031A70"/>
<path d="M331.455 223.5V143.5H379.736V152.094H341.143V179.125H377.236V187.719H341.143V214.906H380.361V223.5H331.455Z" fill="#031A70"/>
<path d="M405.166 187.406V223.5H395.947V163.5H404.854V172.875H405.635C407.041 169.828 409.176 167.38 412.041 165.531C414.906 163.656 418.604 162.719 423.135 162.719C427.197 162.719 430.752 163.552 433.799 165.219C436.846 166.859 439.215 169.359 440.908 172.719C442.601 176.052 443.447 180.271 443.447 185.375V223.5H434.229V186C434.229 181.286 433.005 177.615 430.557 174.984C428.109 172.328 424.749 171 420.479 171C417.536 171 414.906 171.638 412.588 172.914C410.296 174.19 408.486 176.052 407.158 178.5C405.83 180.948 405.166 183.917 405.166 187.406Z" fill="#031A70"/>
<path d="M484.512 247.25C480.059 247.25 476.23 246.677 473.027 245.531C469.824 244.411 467.155 242.927 465.02 241.078C462.91 239.255 461.23 237.302 459.98 235.219L467.324 230.062C468.158 231.156 469.212 232.406 470.488 233.812C471.764 235.245 473.509 236.482 475.723 237.523C477.962 238.591 480.892 239.125 484.512 239.125C489.355 239.125 493.353 237.953 496.504 235.609C499.655 233.266 501.23 229.594 501.23 224.594V212.406H500.449C499.772 213.5 498.809 214.854 497.559 216.469C496.335 218.057 494.564 219.477 492.246 220.727C489.954 221.951 486.855 222.562 482.949 222.562C478.105 222.562 473.757 221.417 469.902 219.125C466.074 216.833 463.04 213.5 460.801 209.125C458.587 204.75 457.48 199.437 457.48 193.188C457.48 187.042 458.561 181.69 460.723 177.133C462.884 172.549 465.892 169.008 469.746 166.508C473.6 163.982 478.053 162.719 483.105 162.719C487.012 162.719 490.111 163.37 492.402 164.672C494.72 165.948 496.491 167.406 497.715 169.047C498.965 170.661 499.928 171.99 500.605 173.031H501.543V163.5H510.449V225.219C510.449 230.375 509.277 234.568 506.934 237.797C504.616 241.052 501.491 243.435 497.559 244.945C493.652 246.482 489.303 247.25 484.512 247.25ZM484.199 214.281C487.897 214.281 491.022 213.435 493.574 211.742C496.126 210.049 498.066 207.615 499.395 204.438C500.723 201.26 501.387 197.458 501.387 193.031C501.387 188.708 500.736 184.893 499.434 181.586C498.132 178.279 496.204 175.688 493.652 173.812C491.1 171.937 487.949 171 484.199 171C480.293 171 477.038 171.99 474.434 173.969C471.855 175.948 469.915 178.604 468.613 181.938C467.337 185.271 466.699 188.969 466.699 193.031C466.699 197.198 467.35 200.883 468.652 204.086C469.98 207.263 471.934 209.763 474.512 211.586C477.116 213.383 480.345 214.281 484.199 214.281Z" fill="#031A70"/>
<path d="M536.543 143.5V223.5H527.324V143.5H536.543Z" fill="#031A70"/>
<path d="M553.428 223.5V163.5H562.646V223.5H553.428ZM558.115 153.5C556.318 153.5 554.769 152.888 553.467 151.664C552.191 150.44 551.553 148.969 551.553 147.25C551.553 145.531 552.191 144.06 553.467 142.836C554.769 141.612 556.318 141 558.115 141C559.912 141 561.449 141.612 562.725 142.836C564.027 144.06 564.678 145.531 564.678 147.25C564.678 148.969 564.027 150.44 562.725 151.664C561.449 152.888 559.912 153.5 558.115 153.5Z" fill="#031A70"/>
<path d="M622.031 176.938L613.75 179.281C613.229 177.901 612.461 176.56 611.445 175.258C610.456 173.93 609.102 172.836 607.383 171.977C605.664 171.117 603.464 170.687 600.781 170.687C597.109 170.687 594.049 171.534 591.602 173.227C589.18 174.893 587.969 177.016 587.969 179.594C587.969 181.885 588.802 183.695 590.469 185.023C592.135 186.352 594.74 187.458 598.281 188.344L607.188 190.531C612.552 191.833 616.549 193.826 619.18 196.508C621.81 199.164 623.125 202.589 623.125 206.781C623.125 210.219 622.135 213.292 620.156 216C618.203 218.708 615.469 220.844 611.953 222.406C608.437 223.969 604.349 224.75 599.688 224.75C593.568 224.75 588.503 223.422 584.492 220.766C580.482 218.109 577.943 214.229 576.875 209.125L585.625 206.938C586.458 210.167 588.034 212.589 590.352 214.203C592.695 215.818 595.755 216.625 599.531 216.625C603.828 216.625 607.24 215.714 609.766 213.891C612.318 212.042 613.594 209.828 613.594 207.25C613.594 205.167 612.865 203.422 611.406 202.016C609.948 200.583 607.708 199.516 604.688 198.812L594.688 196.469C589.193 195.167 585.156 193.148 582.578 190.414C580.026 187.654 578.75 184.203 578.75 180.062C578.75 176.677 579.701 173.682 581.602 171.078C583.529 168.474 586.146 166.43 589.453 164.945C592.786 163.461 596.562 162.719 600.781 162.719C606.719 162.719 611.38 164.021 614.766 166.625C618.177 169.229 620.599 172.667 622.031 176.938Z" fill="#031A70"/>
<path d="M646.221 187.406V223.5H637.002V143.5H646.221V172.875H647.002C648.408 169.776 650.518 167.315 653.33 165.492C656.169 163.643 659.945 162.719 664.658 162.719C668.747 162.719 672.327 163.539 675.4 165.18C678.473 166.794 680.856 169.281 682.549 172.641C684.268 175.974 685.127 180.219 685.127 185.375V223.5H675.908V186C675.908 181.234 674.671 177.549 672.197 174.945C669.749 172.315 666.351 171 662.002 171C658.981 171 656.273 171.638 653.877 172.914C651.507 174.19 649.632 176.052 648.252 178.5C646.898 180.948 646.221 183.917 646.221 187.406Z" fill="#031A70"/>
<path d="M693.818 152.094V143.5H753.818V152.094H728.662V223.5H718.975V152.094H693.818Z" fill="#031A70"/>
<path d="M783.193 224.75C777.777 224.75 773.024 223.461 768.936 220.883C764.873 218.305 761.696 214.698 759.404 210.062C757.139 205.427 756.006 200.01 756.006 193.812C756.006 187.562 757.139 182.107 759.404 177.445C761.696 172.784 764.873 169.164 768.936 166.586C773.024 164.008 777.777 162.719 783.193 162.719C788.61 162.719 793.35 164.008 797.412 166.586C801.501 169.164 804.678 172.784 806.943 177.445C809.235 182.107 810.381 187.562 810.381 193.812C810.381 200.01 809.235 205.427 806.943 210.062C804.678 214.698 801.501 218.305 797.412 220.883C793.35 223.461 788.61 224.75 783.193 224.75ZM783.193 216.469C787.308 216.469 790.693 215.414 793.35 213.305C796.006 211.195 797.972 208.422 799.248 204.984C800.524 201.547 801.162 197.823 801.162 193.812C801.162 189.802 800.524 186.065 799.248 182.602C797.972 179.138 796.006 176.339 793.35 174.203C790.693 172.068 787.308 171 783.193 171C779.079 171 775.693 172.068 773.037 174.203C770.381 176.339 768.415 179.138 767.139 182.602C765.863 186.065 765.225 189.802 765.225 193.812C765.225 197.823 765.863 201.547 767.139 204.984C768.415 208.422 770.381 211.195 773.037 213.305C775.693 215.414 779.079 216.469 783.193 216.469Z" fill="#031A70"/>
<path d="M847.109 224.75C842.109 224.75 837.695 223.487 833.867 220.961C830.039 218.409 827.044 214.815 824.883 210.18C822.721 205.518 821.641 200.01 821.641 193.656C821.641 187.354 822.721 181.885 824.883 177.25C827.044 172.615 830.052 169.034 833.906 166.508C837.76 163.982 842.214 162.719 847.266 162.719C851.172 162.719 854.258 163.37 856.523 164.672C858.815 165.948 860.56 167.406 861.758 169.047C862.982 170.661 863.932 171.99 864.609 173.031H865.391V143.5H874.609V223.5H865.703V214.281H864.609C863.932 215.375 862.969 216.755 861.719 218.422C860.469 220.062 858.685 221.534 856.367 222.836C854.049 224.112 850.964 224.75 847.109 224.75ZM848.359 216.469C852.057 216.469 855.182 215.505 857.734 213.578C860.286 211.625 862.227 208.93 863.555 205.492C864.883 202.029 865.547 198.031 865.547 193.5C865.547 189.021 864.896 185.102 863.594 181.742C862.292 178.357 860.365 175.727 857.812 173.852C855.26 171.951 852.109 171 848.359 171C844.453 171 841.198 172.003 838.594 174.008C836.016 175.987 834.076 178.682 832.773 182.094C831.497 185.479 830.859 189.281 830.859 193.5C830.859 197.771 831.51 201.651 832.812 205.141C834.141 208.604 836.094 211.365 838.672 213.422C841.276 215.453 844.505 216.469 848.359 216.469Z" fill="#031A70"/>
<path d="M897.305 223.5H887.148L916.523 143.5H926.523L955.898 223.5H945.742L921.836 156.156H921.211L897.305 223.5ZM901.055 192.25H941.992V200.844H901.055V192.25Z" fill="#031A70"/>
<path d="M978.047 143.5V223.5H968.359V143.5H978.047Z" fill="#031A70"/>
<path d="M52.1875 163.5C51.7188 159.542 49.8177 156.469 46.4844 154.281C43.151 152.094 39.0625 151 34.2188 151C30.6771 151 27.5781 151.573 24.9219 152.719C22.2917 153.865 20.2344 155.44 18.75 157.445C17.2917 159.451 16.5625 161.729 16.5625 164.281C16.5625 166.417 17.0703 168.253 18.0859 169.789C19.1276 171.299 20.4557 172.562 22.0703 173.578C23.6849 174.568 25.3776 175.388 27.1484 176.039C28.9193 176.664 30.5469 177.172 32.0312 177.562L40.1562 179.75C42.2396 180.297 44.5573 181.052 47.1094 182.016C49.6875 182.979 52.1484 184.294 54.4922 185.961C56.862 187.602 58.8151 189.711 60.3516 192.289C61.888 194.867 62.6563 198.031 62.6563 201.781C62.6563 206.104 61.5234 210.01 59.2578 213.5C57.0182 216.99 53.737 219.763 49.4141 221.82C45.1172 223.878 39.8958 224.906 33.75 224.906C28.0208 224.906 23.0599 223.982 18.8672 222.133C14.7005 220.284 11.4193 217.706 9.02344 214.398C6.65365 211.091 5.3125 207.25 5 202.875H15C15.2604 205.896 16.276 208.396 18.0469 210.375C19.8438 212.328 22.1094 213.786 24.8438 214.75C27.6042 215.687 30.5729 216.156 33.75 216.156C37.4479 216.156 40.7682 215.557 43.7109 214.359C46.6536 213.135 48.9844 211.443 50.7031 209.281C52.4219 207.094 53.2812 204.542 53.2812 201.625C53.2812 198.969 52.5391 196.807 51.0547 195.141C49.5703 193.474 47.6172 192.12 45.1953 191.078C42.7734 190.036 40.1563 189.125 37.3438 188.344L27.5 185.531C21.25 183.734 16.3021 181.169 12.6562 177.836C9.01042 174.503 7.1875 170.141 7.1875 164.75C7.1875 160.271 8.39844 156.365 10.8203 153.031C13.2682 149.672 16.5495 147.068 20.6641 145.219C24.8047 143.344 29.4271 142.406 34.5312 142.406C39.6875 142.406 44.2708 143.331 48.2812 145.18C52.2917 147.003 55.4688 149.503 57.8125 152.68C60.1823 155.857 61.4323 159.464 61.5625 163.5H52.1875Z" stroke="white" stroke-width="8" mask="url(#path-24-outside-1_36_6)"/>
<path d="M77.334 246V163.5H86.2402V173.031H87.334C88.0111 171.99 88.9486 170.661 90.1465 169.047C91.3704 167.406 93.1152 165.948 95.3809 164.672C97.6725 163.37 100.771 162.719 104.678 162.719C109.73 162.719 114.183 163.982 118.037 166.508C121.891 169.034 124.899 172.615 127.061 177.25C129.222 181.885 130.303 187.354 130.303 193.656C130.303 200.01 129.222 205.518 127.061 210.18C124.899 214.815 121.904 218.409 118.076 220.961C114.248 223.487 109.834 224.75 104.834 224.75C100.98 224.75 97.8939 224.112 95.5762 222.836C93.2585 221.534 91.4746 220.062 90.2246 218.422C88.9746 216.755 88.0111 215.375 87.334 214.281H86.5527V246H77.334ZM86.3965 193.5C86.3965 198.031 87.0605 202.029 88.3887 205.492C89.7168 208.93 91.6569 211.625 94.209 213.578C96.7611 215.505 99.8861 216.469 103.584 216.469C107.438 216.469 110.654 215.453 113.232 213.422C115.837 211.365 117.79 208.604 119.092 205.141C120.42 201.651 121.084 197.771 121.084 193.5C121.084 189.281 120.433 185.479 119.131 182.094C117.855 178.682 115.915 175.987 113.311 174.008C110.732 172.003 107.49 171 103.584 171C99.834 171 96.6829 171.951 94.1309 173.852C91.5788 175.727 89.6517 178.357 88.3496 181.742C87.0475 185.102 86.3965 189.021 86.3965 193.5Z" stroke="white" stroke-width="8" mask="url(#path-24-outside-1_36_6)"/>
<path d="M169.521 224.75C163.74 224.75 158.753 223.474 154.561 220.922C150.394 218.344 147.178 214.75 144.912 210.141C142.673 205.505 141.553 200.115 141.553 193.969C141.553 187.823 142.673 182.406 144.912 177.719C147.178 173.005 150.329 169.333 154.365 166.703C158.428 164.047 163.167 162.719 168.584 162.719C171.709 162.719 174.795 163.24 177.842 164.281C180.889 165.323 183.662 167.016 186.162 169.359C188.662 171.677 190.654 174.75 192.139 178.578C193.623 182.406 194.365 187.12 194.365 192.719V196.625H148.115V188.656H184.99C184.99 185.271 184.313 182.25 182.959 179.594C181.631 176.937 179.73 174.841 177.256 173.305C174.808 171.768 171.917 171 168.584 171C164.912 171 161.735 171.911 159.053 173.734C156.396 175.531 154.352 177.875 152.92 180.766C151.488 183.656 150.771 186.755 150.771 190.062V195.375C150.771 199.906 151.553 203.747 153.115 206.898C154.704 210.023 156.904 212.406 159.717 214.047C162.529 215.661 165.798 216.469 169.521 216.469C171.943 216.469 174.131 216.13 176.084 215.453C178.063 214.75 179.769 213.708 181.201 212.328C182.633 210.922 183.74 209.177 184.521 207.094L193.428 209.594C192.49 212.615 190.915 215.271 188.701 217.562C186.488 219.828 183.753 221.599 180.498 222.875C177.243 224.125 173.584 224.75 169.521 224.75Z" stroke="white" stroke-width="8" mask="url(#path-24-outside-1_36_6)"/>
<path d="M226.045 224.906C222.243 224.906 218.792 224.19 215.693 222.758C212.594 221.299 210.133 219.203 208.311 216.469C206.488 213.708 205.576 210.375 205.576 206.469C205.576 203.031 206.253 200.245 207.607 198.109C208.962 195.948 210.771 194.255 213.037 193.031C215.303 191.807 217.803 190.896 220.537 190.297C223.298 189.672 226.071 189.177 228.857 188.812C232.503 188.344 235.459 187.992 237.725 187.758C240.016 187.497 241.683 187.068 242.725 186.469C243.792 185.87 244.326 184.828 244.326 183.344V183.031C244.326 179.177 243.271 176.182 241.162 174.047C239.079 171.911 235.915 170.844 231.67 170.844C227.269 170.844 223.818 171.807 221.318 173.734C218.818 175.661 217.061 177.719 216.045 179.906L207.295 176.781C208.857 173.135 210.941 170.297 213.545 168.266C216.175 166.208 219.04 164.776 222.139 163.969C225.264 163.135 228.337 162.719 231.357 162.719C233.285 162.719 235.498 162.953 237.998 163.422C240.524 163.865 242.959 164.789 245.303 166.195C247.673 167.602 249.639 169.724 251.201 172.562C252.764 175.401 253.545 179.203 253.545 183.969V223.5H244.326V215.375H243.857C243.232 216.677 242.191 218.07 240.732 219.555C239.274 221.039 237.334 222.302 234.912 223.344C232.49 224.385 229.535 224.906 226.045 224.906ZM227.451 216.625C231.097 216.625 234.17 215.909 236.67 214.477C239.196 213.044 241.097 211.195 242.373 208.93C243.675 206.664 244.326 204.281 244.326 201.781V193.344C243.936 193.812 243.076 194.242 241.748 194.633C240.446 194.997 238.936 195.323 237.217 195.609C235.524 195.87 233.87 196.104 232.256 196.312C230.667 196.495 229.378 196.651 228.389 196.781C225.993 197.094 223.753 197.602 221.67 198.305C219.613 198.982 217.946 200.01 216.67 201.391C215.42 202.745 214.795 204.594 214.795 206.938C214.795 210.141 215.98 212.562 218.35 214.203C220.745 215.818 223.779 216.625 227.451 216.625Z" stroke="white" stroke-width="8" mask="url(#path-24-outside-1_36_6)"/>
<path d="M278.965 201.625L278.809 190.219H280.684L306.934 163.5H318.34L290.371 191.781H289.59L278.965 201.625ZM270.371 223.5V143.5H279.59V223.5H270.371ZM308.496 223.5L285.059 193.812L291.621 187.406L320.215 223.5H308.496Z" stroke="white" stroke-width="8" mask="url(#path-24-outside-1_36_6)"/>
<path d="M331.455 223.5V143.5H379.736V152.094H341.143V179.125H377.236V187.719H341.143V214.906H380.361V223.5H331.455Z" stroke="white" stroke-width="8" mask="url(#path-24-outside-1_36_6)"/>
<path d="M405.166 187.406V223.5H395.947V163.5H404.854V172.875H405.635C407.041 169.828 409.176 167.38 412.041 165.531C414.906 163.656 418.604 162.719 423.135 162.719C427.197 162.719 430.752 163.552 433.799 165.219C436.846 166.859 439.215 169.359 440.908 172.719C442.601 176.052 443.447 180.271 443.447 185.375V223.5H434.229V186C434.229 181.286 433.005 177.615 430.557 174.984C428.109 172.328 424.749 171 420.479 171C417.536 171 414.906 171.638 412.588 172.914C410.296 174.19 408.486 176.052 407.158 178.5C405.83 180.948 405.166 183.917 405.166 187.406Z" stroke="white" stroke-width="8" mask="url(#path-24-outside-1_36_6)"/>
<path d="M484.512 247.25C480.059 247.25 476.23 246.677 473.027 245.531C469.824 244.411 467.155 242.927 465.02 241.078C462.91 239.255 461.23 237.302 459.98 235.219L467.324 230.062C468.158 231.156 469.212 232.406 470.488 233.812C471.764 235.245 473.509 236.482 475.723 237.523C477.962 238.591 480.892 239.125 484.512 239.125C489.355 239.125 493.353 237.953 496.504 235.609C499.655 233.266 501.23 229.594 501.23 224.594V212.406H500.449C499.772 213.5 498.809 214.854 497.559 216.469C496.335 218.057 494.564 219.477 492.246 220.727C489.954 221.951 486.855 222.562 482.949 222.562C478.105 222.562 473.757 221.417 469.902 219.125C466.074 216.833 463.04 213.5 460.801 209.125C458.587 204.75 457.48 199.437 457.48 193.188C457.48 187.042 458.561 181.69 460.723 177.133C462.884 172.549 465.892 169.008 469.746 166.508C473.6 163.982 478.053 162.719 483.105 162.719C487.012 162.719 490.111 163.37 492.402 164.672C494.72 165.948 496.491 167.406 497.715 169.047C498.965 170.661 499.928 171.99 500.605 173.031H501.543V163.5H510.449V225.219C510.449 230.375 509.277 234.568 506.934 237.797C504.616 241.052 501.491 243.435 497.559 244.945C493.652 246.482 489.303 247.25 484.512 247.25ZM484.199 214.281C487.897 214.281 491.022 213.435 493.574 211.742C496.126 210.049 498.066 207.615 499.395 204.438C500.723 201.26 501.387 197.458 501.387 193.031C501.387 188.708 500.736 184.893 499.434 181.586C498.132 178.279 496.204 175.688 493.652 173.812C491.1 171.937 487.949 171 484.199 171C480.293 171 477.038 171.99 474.434 173.969C471.855 175.948 469.915 178.604 468.613 181.938C467.337 185.271 466.699 188.969 466.699 193.031C466.699 197.198 467.35 200.883 468.652 204.086C469.98 207.263 471.934 209.763 474.512 211.586C477.116 213.383 480.345 214.281 484.199 214.281Z" stroke="white" stroke-width="8" mask="url(#path-24-outside-1_36_6)"/>
<path d="M536.543 143.5V223.5H527.324V143.5H536.543Z" stroke="white" stroke-width="8" mask="url(#path-24-outside-1_36_6)"/>
<path d="M553.428 223.5V163.5H562.646V223.5H553.428ZM558.115 153.5C556.318 153.5 554.769 152.888 553.467 151.664C552.191 150.44 551.553 148.969 551.553 147.25C551.553 145.531 552.191 144.06 553.467 142.836C554.769 141.612 556.318 141 558.115 141C559.912 141 561.449 141.612 562.725 142.836C564.027 144.06 564.678 145.531 564.678 147.25C564.678 148.969 564.027 150.44 562.725 151.664C561.449 152.888 559.912 153.5 558.115 153.5Z" stroke="white" stroke-width="8" mask="url(#path-24-outside-1_36_6)"/>
<path d="M622.031 176.938L613.75 179.281C613.229 177.901 612.461 176.56 611.445 175.258C610.456 173.93 609.102 172.836 607.383 171.977C605.664 171.117 603.464 170.687 600.781 170.687C597.109 170.687 594.049 171.534 591.602 173.227C589.18 174.893 587.969 177.016 587.969 179.594C587.969 181.885 588.802 183.695 590.469 185.023C592.135 186.352 594.74 187.458 598.281 188.344L607.188 190.531C612.552 191.833 616.549 193.826 619.18 196.508C621.81 199.164 623.125 202.589 623.125 206.781C623.125 210.219 622.135 213.292 620.156 216C618.203 218.708 615.469 220.844 611.953 222.406C608.437 223.969 604.349 224.75 599.688 224.75C593.568 224.75 588.503 223.422 584.492 220.766C580.482 218.109 577.943 214.229 576.875 209.125L585.625 206.938C586.458 210.167 588.034 212.589 590.352 214.203C592.695 215.818 595.755 216.625 599.531 216.625C603.828 216.625 607.24 215.714 609.766 213.891C612.318 212.042 613.594 209.828 613.594 207.25C613.594 205.167 612.865 203.422 611.406 202.016C609.948 200.583 607.708 199.516 604.688 198.812L594.688 196.469C589.193 195.167 585.156 193.148 582.578 190.414C580.026 187.654 578.75 184.203 578.75 180.062C578.75 176.677 579.701 173.682 581.602 171.078C583.529 168.474 586.146 166.43 589.453 164.945C592.786 163.461 596.562 162.719 600.781 162.719C606.719 162.719 611.38 164.021 614.766 166.625C618.177 169.229 620.599 172.667 622.031 176.938Z" stroke="white" stroke-width="8" mask="url(#path-24-outside-1_36_6)"/>
<path d="M646.221 187.406V223.5H637.002V143.5H646.221V172.875H647.002C648.408 169.776 650.518 167.315 653.33 165.492C656.169 163.643 659.945 162.719 664.658 162.719C668.747 162.719 672.327 163.539 675.4 165.18C678.473 166.794 680.856 169.281 682.549 172.641C684.268 175.974 685.127 180.219 685.127 185.375V223.5H675.908V186C675.908 181.234 674.671 177.549 672.197 174.945C669.749 172.315 666.351 171 662.002 171C658.981 171 656.273 171.638 653.877 172.914C651.507 174.19 649.632 176.052 648.252 178.5C646.898 180.948 646.221 183.917 646.221 187.406Z" stroke="white" stroke-width="8" mask="url(#path-24-outside-1_36_6)"/>
<path d="M693.818 152.094V143.5H753.818V152.094H728.662V223.5H718.975V152.094H693.818Z" stroke="white" stroke-width="8" mask="url(#path-24-outside-1_36_6)"/>
<path d="M783.193 224.75C777.777 224.75 773.024 223.461 768.936 220.883C764.873 218.305 761.696 214.698 759.404 210.062C757.139 205.427 756.006 200.01 756.006 193.812C756.006 187.562 757.139 182.107 759.404 177.445C761.696 172.784 764.873 169.164 768.936 166.586C773.024 164.008 777.777 162.719 783.193 162.719C788.61 162.719 793.35 164.008 797.412 166.586C801.501 169.164 804.678 172.784 806.943 177.445C809.235 182.107 810.381 187.562 810.381 193.812C810.381 200.01 809.235 205.427 806.943 210.062C804.678 214.698 801.501 218.305 797.412 220.883C793.35 223.461 788.61 224.75 783.193 224.75ZM783.193 216.469C787.308 216.469 790.693 215.414 793.35 213.305C796.006 211.195 797.972 208.422 799.248 204.984C800.524 201.547 801.162 197.823 801.162 193.812C801.162 189.802 800.524 186.065 799.248 182.602C797.972 179.138 796.006 176.339 793.35 174.203C790.693 172.068 787.308 171 783.193 171C779.079 171 775.693 172.068 773.037 174.203C770.381 176.339 768.415 179.138 767.139 182.602C765.863 186.065 765.225 189.802 765.225 193.812C765.225 197.823 765.863 201.547 767.139 204.984C768.415 208.422 770.381 211.195 773.037 213.305C775.693 215.414 779.079 216.469 783.193 216.469Z" stroke="white" stroke-width="8" mask="url(#path-24-outside-1_36_6)"/>
<path d="M847.109 224.75C842.109 224.75 837.695 223.487 833.867 220.961C830.039 218.409 827.044 214.815 824.883 210.18C822.721 205.518 821.641 200.01 821.641 193.656C821.641 187.354 822.721 181.885 824.883 177.25C827.044 172.615 830.052 169.034 833.906 166.508C837.76 163.982 842.214 162.719 847.266 162.719C851.172 162.719 854.258 163.37 856.523 164.672C858.815 165.948 860.56 167.406 861.758 169.047C862.982 170.661 863.932 171.99 864.609 173.031H865.391V143.5H874.609V223.5H865.703V214.281H864.609C863.932 215.375 862.969 216.755 861.719 218.422C860.469 220.062 858.685 221.534 856.367 222.836C854.049 224.112 850.964 224.75 847.109 224.75ZM848.359 216.469C852.057 216.469 855.182 215.505 857.734 213.578C860.286 211.625 862.227 208.93 863.555 205.492C864.883 202.029 865.547 198.031 865.547 193.5C865.547 189.021 864.896 185.102 863.594 181.742C862.292 178.357 860.365 175.727 857.812 173.852C855.26 171.951 852.109 171 848.359 171C844.453 171 841.198 172.003 838.594 174.008C836.016 175.987 834.076 178.682 832.773 182.094C831.497 185.479 830.859 189.281 830.859 193.5C830.859 197.771 831.51 201.651 832.812 205.141C834.141 208.604 836.094 211.365 838.672 213.422C841.276 215.453 844.505 216.469 848.359 216.469Z" stroke="white" stroke-width="8" mask="url(#path-24-outside-1_36_6)"/>
<path d="M897.305 223.5H887.148L916.523 143.5H926.523L955.898 223.5H945.742L921.836 156.156H921.211L897.305 223.5ZM901.055 192.25H941.992V200.844H901.055V192.25Z" stroke="white" stroke-width="8" mask="url(#path-24-outside-1_36_6)"/>
<path d="M978.047 143.5V223.5H968.359V143.5H978.047Z" stroke="white" stroke-width="8" mask="url(#path-24-outside-1_36_6)"/>
</svg>
