<svg xmlns="http://www.w3.org/2000/svg" xmlns:xlink="http://www.w3.org/1999/xlink" width="500" zoomAndPan="magnify" viewBox="0 0 375 374.999991" height="500" preserveAspectRatio="xMidYMid meet" version="1.0"><defs><clipPath id="bd70d8844d"><path d="M 19.738281 17.773438 L 357.96875 17.773438 L 357.96875 356.003906 L 19.738281 356.003906 Z M 19.738281 17.773438 " clip-rule="nonzero"/></clipPath><clipPath id="ffa40aace6"><path d="M 188.855469 17.773438 C 95.453125 17.773438 19.738281 93.488281 19.738281 186.890625 C 19.738281 280.289062 95.453125 356.003906 188.855469 356.003906 C 282.253906 356.003906 357.96875 280.289062 357.96875 186.890625 C 357.96875 93.488281 282.253906 17.773438 188.855469 17.773438 Z M 188.855469 17.773438 " clip-rule="nonzero"/></clipPath><clipPath id="c0a64afeee"><path d="M 90 76.953125 L 288 76.953125 L 288 234 L 90 234 Z M 90 76.953125 " clip-rule="nonzero"/></clipPath><clipPath id="be6671dd7c"><path d="M 104 284 L 156 284 L 156 296.703125 L 104 296.703125 Z M 104 284 " clip-rule="nonzero"/></clipPath><clipPath id="ce7f516030"><path d="M 281 284 L 300.460938 284 L 300.460938 296.703125 L 281 296.703125 Z M 281 284 " clip-rule="nonzero"/></clipPath><clipPath id="96e731355b"><path d="M 163 284 L 215 284 L 215 296.703125 L 163 296.703125 Z M 163 284 " clip-rule="nonzero"/></clipPath><clipPath id="a22de79c94"><path d="M 222 284 L 274 284 L 274 296.703125 L 222 296.703125 Z M 222 284 " clip-rule="nonzero"/></clipPath><clipPath id="bdee90b97b"><path d="M 77 284 L 97 284 L 97 296.703125 L 77 296.703125 Z M 77 284 " clip-rule="nonzero"/></clipPath></defs><rect x="-37.5" width="450" fill="#ffffff" y="-37.499999" height="449.999989" fill-opacity="1"/><rect x="-37.5" width="450" fill="#ffffff" y="-37.499999" height="449.999989" fill-opacity="1"/><g clip-path="url(#bd70d8844d)"><g clip-path="url(#ffa40aace6)"><path fill="#0ca9ef" d="M 19.738281 17.773438 L 357.96875 17.773438 L 357.96875 356.003906 L 19.738281 356.003906 Z M 19.738281 17.773438 " fill-opacity="1" fill-rule="nonzero"/></g></g><path fill="#9ddf42" d="M 96.882812 262.128906 L 88.714844 276.667969 L 125.679688 276.667969 L 125.679688 262.128906 Z M 96.882812 262.128906 " fill-opacity="1" fill-rule="nonzero"/><path fill="#9ddf42" d="M 133.644531 262.128906 L 133.644531 276.667969 L 184.867188 276.667969 L 184.867188 262.128906 Z M 133.644531 262.128906 " fill-opacity="1" fill-rule="nonzero"/><path fill="#9ddf42" d="M 252.023438 276.667969 L 288.988281 276.667969 L 280.820312 262.128906 L 252.023438 262.128906 Z M 252.023438 276.667969 " fill-opacity="1" fill-rule="nonzero"/><path fill="#9ddf42" d="M 104.050781 249.34375 L 104.050781 254.164062 L 155.273438 254.164062 L 155.273438 241.855469 L 108.273438 241.855469 Z M 104.050781 249.34375 " fill-opacity="1" fill-rule="nonzero"/><g clip-path="url(#c0a64afeee)"><path fill="#9ddf42" d="M 90.230469 150.960938 L 105.921875 150.960938 C 106.183594 150.960938 106.445312 150.984375 106.699219 151.035156 C 106.957031 151.085938 107.207031 151.164062 107.449219 151.261719 C 107.6875 151.363281 107.917969 151.484375 108.136719 151.632812 C 108.351562 151.777344 108.554688 151.941406 108.738281 152.125 C 108.925781 152.3125 109.089844 152.511719 109.234375 152.730469 C 109.378906 152.949219 109.503906 153.175781 109.601562 153.417969 C 109.703125 153.660156 109.777344 153.910156 109.828125 154.167969 C 109.878906 154.421875 109.90625 154.679688 109.90625 154.941406 L 109.90625 233.886719 L 267.796875 233.886719 L 267.796875 154.941406 C 267.796875 154.679688 267.820312 154.421875 267.871094 154.167969 C 267.925781 153.910156 268 153.660156 268.097656 153.417969 C 268.199219 153.175781 268.320312 152.949219 268.46875 152.730469 C 268.613281 152.511719 268.777344 152.3125 268.964844 152.125 C 269.148438 151.941406 269.347656 151.777344 269.566406 151.632812 C 269.785156 151.484375 270.011719 151.363281 270.253906 151.261719 C 270.496094 151.164062 270.746094 151.085938 271.003906 151.035156 C 271.257812 150.984375 271.519531 150.960938 271.78125 150.960938 L 287.472656 150.960938 L 188.851562 76.992188 Z M 90.230469 150.960938 " fill-opacity="1" fill-rule="nonzero"/></g><g clip-path="url(#be6671dd7c)"><path fill="#9ddf42" d="M 129.664062 284.632812 L 104.050781 284.632812 L 104.050781 296.980469 L 155.273438 296.980469 L 155.273438 284.632812 Z M 129.664062 284.632812 " fill-opacity="1" fill-rule="nonzero"/></g><path fill="#9ddf42" d="M 222.429688 241.855469 L 222.429688 254.164062 L 273.652344 254.164062 L 273.652344 249.34375 L 269.429688 241.855469 Z M 222.429688 241.855469 " fill-opacity="1" fill-rule="nonzero"/><g clip-path="url(#ce7f516030)"><path fill="#9ddf42" d="M 281.617188 284.632812 L 281.617188 296.980469 L 300.417969 296.980469 L 293.488281 284.632812 Z M 281.617188 284.632812 " fill-opacity="1" fill-rule="nonzero"/></g><g clip-path="url(#96e731355b)"><path fill="#9ddf42" d="M 163.238281 284.632812 L 163.238281 296.980469 L 214.460938 296.980469 L 214.460938 284.632812 Z M 163.238281 284.632812 " fill-opacity="1" fill-rule="nonzero"/></g><path fill="#9ddf42" d="M 163.238281 254.164062 L 214.460938 254.164062 L 214.460938 241.855469 L 163.238281 241.855469 Z M 163.238281 254.164062 " fill-opacity="1" fill-rule="nonzero"/><g clip-path="url(#a22de79c94)"><path fill="#9ddf42" d="M 222.429688 284.632812 L 222.429688 296.980469 L 273.652344 296.980469 L 273.652344 284.632812 Z M 222.429688 284.632812 " fill-opacity="1" fill-rule="nonzero"/></g><g clip-path="url(#bdee90b97b)"><path fill="#9ddf42" d="M 96.085938 296.980469 L 96.085938 284.632812 L 84.253906 284.632812 L 77.285156 296.980469 Z M 96.085938 296.980469 " fill-opacity="1" fill-rule="nonzero"/></g><path fill="#9ddf42" d="M 192.835938 262.128906 L 192.835938 276.667969 L 244.058594 276.667969 L 244.058594 262.128906 Z M 192.835938 262.128906 " fill-opacity="1" fill-rule="nonzero"/></svg>