<?xml version="1.0" encoding="utf-8"?>
<!-- Generator: Adobe Illustrator 26.0.1, SVG Export Plug-In . SVG Version: 6.00 Build 0)  -->
<svg version="1.1" id="Layer_1" xmlns="http://www.w3.org/2000/svg" xmlns:xlink="http://www.w3.org/1999/xlink" x="0px" y="0px"
	 viewBox="0 0 33 33" style="enable-background:new 0 0 33 33;" xml:space="preserve">
<style type="text/css">
	.st0{fill:none;stroke:#484A4D;stroke-width:1.78;stroke-linecap:round;stroke-linejoin:round;}
</style>
<g>
	<path class="st0" d="M13.1,27v-3.7c0-0.9,0.8-1.7,1.7-1.7h3.5c1,0,1.7,0.8,1.7,1.7l0,0V27c0,0.8,0.6,1.4,1.5,1.5h2.3
		c2.3,0,4.2-1.8,4.2-4.1l0,0V13.9c0-0.9-0.4-1.7-1.2-2.3l-8-6.3c-1.4-1.1-3.4-1.1-4.8,0l-7.9,6.3C5.4,12.2,5,13,5,13.9v10.5
		c0,2.3,1.9,4.1,4.2,4.1h2.3C12.4,28.5,13,27.8,13.1,27L13.1,27"/>
</g>
</svg>
